<?xml version="1.0" encoding="utf-8"?>
<!-- Generator: Adobe Illustrator 24.1.3, SVG Export Plug-In . SVG Version: 6.00 Build 0)  -->
<svg version="1.1" id="Camada_1" xmlns="http://www.w3.org/2000/svg" xmlns:xlink="http://www.w3.org/1999/xlink" x="0px" y="0px"
	 viewBox="0 0 5777 965.5" style="enable-background:new 0 0 5777 965.5;" xml:space="preserve">
<style type="text/css">
	.st0{fill:#E0E0E0;}
	.st1{fill:#EEEEEE;}
	.st2{fill:#232121;}
	.st3{fill:#BD6C22;}
	.st4{fill:#E88746;}
	.st5{fill:#FDD600;}
	.st6{fill:#2398AC;}
	.st7{fill:#FFFFFF;}
	.st8{fill:#232323;}
	.st9{fill:#0A0A05;}
	.st10{fill:#B78D8E;}
	.st11{fill:#FDD80C;}
	.st12{fill:#424242;}
	.st13{fill:#FF996B;}
	.st14{fill:url(#SVGID_1_);}
	.st15{opacity:0.3;fill:#FFFFFF;enable-background:new    ;}
	.st16{fill:url(#SVGID_2_);}
	.st17{opacity:0.1;fill:#926037;enable-background:new    ;}
	.st18{opacity:0.1;}
	.st19{fill:#926037;}
	.st20{opacity:0.2;fill:#C99D67;enable-background:new    ;}
	.st21{opacity:0.4;fill:#926037;enable-background:new    ;}
	.st22{fill:url(#SVGID_3_);}
	.st23{fill:#1D1D1B;}
	.st24{fill:url(#SVGID_4_);}
	.st25{fill:url(#SVGID_5_);}
	.st26{fill:url(#SVGID_6_);}
	.st27{fill:url(#SVGID_7_);}
	.st28{opacity:0.5;fill:#FFFFFF;enable-background:new    ;}
	.st29{opacity:0.5;fill:#FFECB3;enable-background:new    ;}
	.st30{fill:#FFCDD2;}
	.st31{fill:#EF9A9A;}
	.st32{fill:url(#SVGID_8_);}
	.st33{opacity:0.7;fill:#FFFFFF;enable-background:new    ;}
	.st34{opacity:0.2;fill:#BCAAA4;enable-background:new    ;}
	.st35{opacity:0.4;fill:#BCAAA4;enable-background:new    ;}
	.st36{fill:url(#SVGID_9_);}
	.st37{opacity:0.5;fill:#FFE082;enable-background:new    ;}
	.st38{fill:#8D6E63;}
	.st39{fill:url(#SVGID_10_);}
	.st40{opacity:0.6;fill:#BCAAA4;enable-background:new    ;}
	.st41{fill:#FFCC80;}
	.st42{fill:#282828;}
	.st43{opacity:0.5;}
	.st44{opacity:0.3;fill:#BCAAA4;enable-background:new    ;}
	.st45{fill:url(#SVGID_11_);}
	.st46{opacity:0.3;fill:#FFB74D;enable-background:new    ;}
	.st47{fill:#FFB74D;}
	.st48{fill:#F57C00;}
	.st49{fill:#EF6C00;}
	.st50{fill:url(#SVGID_12_);}
	.st51{opacity:0.7;}
	.st52{opacity:0.3;}
	.st53{fill:url(#SVGID_13_);}
	.st54{opacity:0.3;fill:url(#SVGID_14_);enable-background:new    ;}
	.st55{fill:#161004;}
	.st56{fill:#FBCB00;}
	.st57{fill:#D37600;}
	.st58{fill:#F19E00;}
	.st59{fill:#393029;}
	.st60{fill:#EDDB58;}
	.st61{fill:#9E9E2E;}
	.st62{fill:#D8C93D;}
	.st63{fill:#8C802D;}
	.st64{fill:#DBC645;}
	.st65{fill:#AFAC31;}
	.st66{fill:#C6C63E;}
	.st67{fill:#B7B332;}
	.st68{fill:#E5E14A;}
	.st69{fill:#F4EB53;}
	.st70{fill:#666426;}
	.st71{fill:#A09A2B;}
	.st72{fill:#C5D841;}
	.st73{fill:#ACB22B;}
	.st74{fill:#7E842A;}
	.st75{fill:#D9E545;}
	.st76{fill:#E1ED48;}
	.st77{fill:#B5BF34;}
	.st78{fill:#F5F964;}
	.st79{fill:#D4D835;}
	.st80{fill:#757A31;}
	.st81{opacity:0.6;}
	.st82{fill:url(#SVGID_15_);}
	.st83{opacity:0.3;fill:#FFFFFF;}
	.st84{fill:url(#SVGID_16_);}
	.st85{opacity:0.1;fill:#A36031;}
	.st86{fill:url(#SVGID_17_);}
	.st87{opacity:0.2;fill:#A36031;}
	.st88{opacity:0.4;fill:#A36031;}
	.st89{fill:#FFEDB2;}
	.st90{fill:url(#SVGID_18_);}
	.st91{opacity:0.5;fill:#FFFFFF;}
	.st92{fill:#171714;}
	.st93{opacity:0.5;fill:#FFEDB2;}
	.st94{opacity:0.2;fill:#D99E64;}
	.st95{fill:#A36031;}
</style>
<g>
	<g id="Camada_1_1_">
		<path class="st0" d="M1242.3,720.7c-0.5,19.5,27.3,17.5,47.1,15.7c9.9-0.9,21.5-6,33.1-14.4c21.2-15.3,42.5-41.6,54.1-73
			c3.8-10.4,7.6-22.4,11.2-34.9c13.1-45.8,23.3-97.9,23.3-97.9l-80-65.5c0,0-4.6,112.8-24.5,181.8c-8.5,29.6-27.2,61.9-27.2,61.9
			S1243,695.1,1242.3,720.7z"/>
		<path class="st1" d="M1246.5,138.2c3,11.3,20.3,36.1,20.3,36.1s-0.2,1-0.6,2.9c-2.1,9.8-8.9,42.2-7.4,53.2
			c2.3,16.4,28.3,47.7,34.9,75.3c5.6,23.4,1.3,82.1,10.2,116.9c1.3,5.7,3.4,11.1,6.3,16.2c16.3,27.1,74,113.3,79.4,121.3
			c0.3,0.4,0.4,0.6,0.4,0.6s0,0.7,0.1,2v0.1c0.1,1.3,0.1,3.1,0.2,5.4c0.8,17.4,2.5,61.2,2.1,87.8c-0.6,33.9-9.7,52.4-9.7,52.4
			s-33.2,5.6-37.2,21c-4,15.4,19.2,31.5,46.2,27c27-4.5,68-50.2,78.1-72.9c10.1-22.7,18.9-65.9,18.9-65.9s-5,35.7,25.9,63.2
			c9.6,8.5,20.2,16,31.5,22.1c0,0-52.1-7.5-67.5,8.1c-15.4,15.6-25.4,41.4-0.5,42.1c23.1,0.6,186.8-7.7,211.2-9c2-0.1,3-0.2,3-0.2
			s-0.8,3.3-9.2,8.4l0,0c-5.9,3.6-15.6,8.1-31.4,13c-31.4,9.7-108.1,13.6-177.2,10.8c-15.2-0.6-30.1-1.6-44-2.9
			c-77.1-7.1-134.1,13.2-133.7,39.8c0.4,26.6,37.8,21,83.5,18.3c21.6-1.3,41.7-2.1,64.5-1.9c17.5,0.1,36.7,0.7,59.3,2.2
			c28.3,1.8,87.2,0.5,140.4-6.7c32.3-4.4,62.6-11,82.5-20.4c7.7-3.6,13.8-7.6,18-12.1c34.2-36.8,15.8-60.7,6.2-77
			c-1-1.8-2.2-3.5-3.5-5.1c-6.7-8.8-16.5-17-23.1-22c-0.5-0.4-0.9-0.7-1.3-1c-1.1-0.8-2.1-1.5-2.9-2.2c-1.5-1.1-2.6-1.8-2.8-2
			c-0.1-0.1-0.1-0.1-0.1-0.1s22.2-46.6,31.8-107.9c6.4-41.1,3.8-88.7-22.7-133.2c-38.8-65.2-105-100.2-152.9-118
			c-33.6-12.5-58.2-16.5-58.2-16.5s-21.4-11.5-30.1-29.3c0-0.1-0.1-0.3-0.2-0.4c-10-20.6-4.9-29.2-4.9-29.2s10.2-17.6,11-27.8
			c0.8-10.2-13.8-53.7-13.8-53.7s0.4-0.6,1.2-1.7c4.1-6.4,18.7-30.5,18.4-52.4c-0.3-20.3-6.3-33.5-8.8-38c-0.3-0.6-0.7-1.3-1.1-1.9
			l-58.7,42.9c0,0-30.1-7.4-54.8-7.4c-0.5,0-1,0-1.5,0c-38.5,0.5-60.2,15.2-60.2,15.2l-63-41.8l-0.5-0.3
			C1248.1,76.9,1236.2,99.4,1246.5,138.2z"/>
		<path class="st2" d="M1303.9,422.6c1.3,5.7,3.4,11.1,6.3,16.2c16.3,27.1,74,113.3,79.3,121.3c-1.4-7.4-29.3-116.9-29.3-116.9
			s-13.6-4.9-36.6-15.9C1314.3,422.9,1308.1,421.8,1303.9,422.6z"/>
		<path class="st3" d="M1558,448.6c14,37.7-31.6,44.5-5.3,65.7c26.3,21.2,42.6-1.6,71.1,21.6c28.4,23.2,4.9,51.2,28.9,61.1
			c24,9.9,39.2,44.5,56.5,22.8c17.4-21.8,14-44.3,23.3-48.5c3.9-1.8,9.8,2.4,16.7,4.1c6.4-41.1,3.8-88.7-22.7-133.2
			c-38.8-65.2-105-100.2-152.9-118c-22.2,12.3-43.2,33.6-43.5,64.3C1529.6,429.6,1543.9,410.9,1558,448.6z"/>
		<path class="st3" d="M1383.5,216.3c10.6,11.6,29.9,20.1,46.6,21.9c16.7,1.8,36.3,27.2,46.3,35.2c2.6,2,5.6,3.5,8.7,4.5
			c-9.9-20.6-4.9-29.2-4.9-29.2s10.1-17.6,11-27.8c0.9-10.3-13.7-53.6-13.7-53.6s0.4-0.6,1.1-1.7c4.1-6.4,18.7-30.5,18.4-52.4
			c-0.3-20.3-6.3-33.5-8.8-38c-0.7-1.2-1.1-1.8-1.1-1.8l-58.7,42.8c0,0-30-7.5-54.8-7.4c-1.4,14.6,7.2,28.8,9.6,51.1
			C1386.2,187,1372.9,204.6,1383.5,216.3z"/>
		<path class="st4" d="M1454.8,146.6c0,0,11,8.1,16.8,13.6c2.2,2,4.5,3.8,7,5.4c4.1-6.4,18.7-30.5,18.4-52.4
			c-0.3-20.3-6.3-33.5-8.8-38c-2.3,9.7-7.1,28.1-12.5,37.3C1468.1,125.3,1454.8,146.6,1454.8,146.6z"/>
		<path class="st4" d="M1246.6,138.2c3,11.3,20.3,36.1,20.3,36.1l-0.6,2.9c2-3.8,4.7-8.5,6.8-11.7c4.1-6.2,14.8-18.7,14.8-18.7
			s-13.6-5.5-28-28.8c-6.8-10.8-10.6-23.2-11-35.9l-0.5-0.3C1248.1,76.9,1236.1,99.4,1246.6,138.2z"/>
		<path class="st2" d="M1335.8,307.2c10.5,5.5,32.4,12.4,48,7c15.6-5.4,40.2-28.2,49.6-25.3c9.4,2.9-9.4,70.9-29,85.5
			s-44.7,4.2-50.7-13.1c-6-17.3-11.6-14.2-21.1-22.8c-9.5-8.6-11.4-35.2-5.2-38.4S1335.8,307.2,1335.8,307.2z"/>
		<path class="st3" d="M1309.2,711.1c5.4,3,9,8.2,13.2,11c21.2-15.3,42.5-41.6,54.1-73c3.8-10.4,7.6-22.4,11.2-34.9
			c-6-20.1-14-40.4-26.8-33.6c-12.9,6.9-20.1,13.1-27.1,34.7c-7,21.6,1.2,15.4-12.4,45.8C1307.9,691.5,1299.3,705.5,1309.2,711.1z"
			/>
		<path class="st5" d="M1397.8,199.6c0,0,10.1,17.8,36.6,9.2c13.5-4.4,18.9-24.9,18.9-24.9s-8.1-15.8-23.9-16.1c-2,0-4,0.2-6,0.6
			c-10,2.2-16.4,10.2-20.4,17.5C1400.7,190.4,1399,194.9,1397.8,199.6z"/>
		<path class="st6" d="M1293.6,185.7c0,0,5.9,20.3,19.6,24.3c26.6,7.8,36.3-10.2,36.3-10.2s-4.3-17.2-16.2-25.9
			c-3-2.2-6.5-3.8-10.2-4.5c-5.4-1.1-11.1-0.3-16,2.3C1298,176.5,1293.6,185.7,1293.6,185.7z"/>
		<path class="st2" d="M1403,186.1c1.3,9,8.4,16,16.9,15.8c9.3-0.1,16.8-8.6,16.7-19c0-5.8-2.7-11.4-7.2-15c-2,0-4,0.2-6,0.6
			C1413.4,170.8,1407,178.8,1403,186.1z"/>
		<path class="st2" d="M1302.4,184.8c0.1,10.3,7.9,18.6,17.2,18.5s16.8-8.6,16.6-19c0-3.7-1.1-7.3-3-10.4c-3-2.2-6.5-3.8-10.2-4.5
			c-5.4-1.1-11.1-0.3-16,2.3C1303.9,175.3,1302.3,180,1302.4,184.8z"/>
		<path class="st2" d="M1368.9,241.3l14.9-13.2c0.6-0.5,0.7-1.5,0.1-2.1c-0.1-0.1-0.2-0.2-0.3-0.3c-2.8-1.8-8.9-5.2-15-5.5
			c-6.1-0.3-13.7,3.6-17,5.5c-0.7,0.4-0.9,1.3-0.5,2c0.1,0.2,0.2,0.3,0.3,0.4l15.4,13.2C1367.4,241.8,1368.3,241.8,1368.9,241.3z"/>
		<path class="st2" d="M1371.4,230.1l0.4,18.7c0,0,6.3,4.5,8.9,7c2.6,2.5-1.5,4.6-7.7,4.7c-6.2,0.1-18,0.4-17.6-4.2
			c0.4-4.6,9.6-7.4,9.6-7.4l0.1-18.7L1371.4,230.1z"/>
		<path class="st2" d="M1705.9,760.3c-10.2,13.6,3.6,9.9,3.1,28.5c-0.1,3.5,10.4,10.5,17.8,16c7.7-3.6,13.8-7.6,18-12.1
			c34.2-36.8,15.8-60.7,6.2-77c-1-1.8-2.2-3.5-3.5-5.1c-6.4-8.1-16-16.4-23.1-22c-0.5-0.4-0.9-0.7-1.3-1c-2.3-1.8-4.3-3.3-5.7-4.3
			c0,0,0,0.1-0.1,0.2c-8.6,17.4-25.3,60.8-25.3,60.8s-0.8,3.3-9.2,8.4l0,0C1678.6,759.9,1713,750.9,1705.9,760.3z"/>
		<path class="st3" d="M1296.6,813.2c0.4,26.7,37.8,21,83.5,18.3c21.6-1.3,41.7-2.1,64.5-1.9c4.8-7.3,3-19.3,5-28.8
			c2.5-11.6,16.9-17.3,24.7-24.6c-15.2-0.6-30.1-1.6-44-2.9C1353.2,766.3,1296.3,786.6,1296.6,813.2z"/>
		<path class="st7" d="M1428,184c0,3.2,2.6,5.8,5.8,5.8c3.2,0,5.8-2.6,5.8-5.8c0-3.2-2.6-5.8-5.8-5.8c0,0-0.1,0-0.1,0
			C1430.6,178.2,1428,180.8,1428,184z"/>
		<path class="st7" d="M1327.5,185.4c0,3.2,2.6,5.8,5.8,5.8c3.2,0,5.8-2.6,5.8-5.8c0-3.2-2.6-5.8-5.8-5.8c0,0-0.1,0-0.1,0
			C1330,179.6,1327.5,182.2,1327.5,185.4z"/>
		<path class="st8" d="M5105.6,605.8c10.1-10.1,15-24.4,13-38.6c-3.1-24.4-57.3-74.7-54-116.4s7.9-63.8,30.3-55.2
			c22.4,8.6,13.8,41.9,12,60.8s35.5,57.7,44.5,96.5c8.9,38.8,8,65.2-8.1,80.6c-16.1,15.4-23,15.8-23,15.8L5105.6,605.8z"/>
		<path class="st9" d="M5043.5,495.9c11.6,18.7,24.1,50.6,49.2,81.2c21,25.6,55.4,55.5,33.8,87.8c-21.6,32.3-43.8,49.7-43.8,49.7
			s14,17.9,7.5,23.2s-60.9,11-76,3.2s-32.4-69.8-14.8-97.6C5017,615.6,5043.5,495.9,5043.5,495.9z"/>
		<path class="st9" d="M4992.4,217.4l27.4,31.8l27.6,32.1c0,0,12.9-39,12.6-61.9c-0.2-21.6-14.6-44.5-16.3-47l-0.1-0.2L4992.4,217.4
			z"/>
		<path class="st10" d="M5019.8,249.2l27.6,32.1c0,0,12.9-39,12.6-61.9c-0.2-21.6-14.6-44.5-16.3-47c-0.8,8.5-2.6,24.1-5.5,37.9
			C5035.3,224.8,5025.2,241.2,5019.8,249.2z"/>
		<path class="st8" d="M4854.5,410.8c-8.7,22.5-11.2,65-4.8,137.1s33.1,143.9,33.3,151.9c0,0-17.8,5-26.6,21.1s15,31.1,45.8,27.6
			c30.9-3.5,22.4-30.6,22.4-30.6s8-0.8,12.2-0.9c5.2-0.1,13.7,1.1,15.7,1.4c0.2,0,0.4,0.1,0.6,0.1c0,0-3.5,13.7-3.5,19.3
			s18,11,48,8.3c30-2.7,33-20.3,22.9-32.3c-9.5-11.1-12.8-22.7,5.5-61.3c18.3-38.6,34.9-122.5,27.1-170.5S5017.9,378,5017.9,378
			s14.9-6.8,33.7-24c7.9-7.2,15-21,15.1-27.6c0.2-11.7-13-25.6-14.6-30.2c-2.5-7.2,3.9-15.8-9.4-40.2
			c-21.1-38.7-52.5-41.9-78.5-44.1c-26-2.1-42.2,8.5-42.2,8.5c-12.6-9.3-25.8-17.8-39.4-25.6c-19.3-11-28.5-14.5-30.5-15.2
			c-0.3-0.1-0.4-0.1-0.4-0.1s-9.7,9.9-9.5,28.8c0.4,35.1,19.6,58.3,21.6,60.6c0.1,0.1,0.1,0.1,0.2,0.2c0,0-19.1,46-17.3,60.4
			s37.2,42.8,37.2,42.8S4863.2,388.3,4854.5,410.8z"/>
		<path class="st10" d="M4842.2,208.2c0.4,35.1,19.6,58.3,21.6,60.6c1.5-2.5,5-7.5,13.2-15.4c12.9-12.4,16.3-16.1,16.3-16.1
			s-17.2-10-25.9-22.7c-8.9-12.8-13.3-27.1-15.3-35.1c-0.3-0.1-0.4-0.1-0.4-0.1S4842,189.2,4842.2,208.2z"/>
		<path class="st11" d="M4997.8,302c4.3,4.9,10.6,7.6,17.1,7.3c1.1,0,2.2-0.1,3.2-0.3c10.2-1.7,14.8-11.6,14.8-11.6
			s-3.5-14.3-16-15.2c-0.8-0.1-1.7-0.1-2.5,0C4999.8,283.1,4997.8,302,4997.8,302z"/>
		<path class="st11" d="M4909.4,298.7c0,0,4.8,9.8,15,11.3c1.1,0.2,2.1,0.2,3.2,0.3c6.5,0.2,12.8-2.6,17-7.7c0,0-2.1-17-14.8-19.3
			c-0.7-0.1-1.4-0.2-2.2-0.3C4913,282.4,4909.4,298.7,4909.4,298.7z"/>
		<path class="st12" d="M4997.8,302c4.3,4.9,10.6,7.6,17.1,7.3c8-6.1,9.6-17.5,3.5-25.4c-0.5-0.6-1-1.2-1.5-1.7
			c-0.8-0.1-1.7-0.1-2.5,0C4999.8,283.1,4997.8,302,4997.8,302z"/>
		<path class="st12" d="M4909.4,298.7c0,0,4.8,9.8,15,11.3c1.1,0.2,2.1,0.2,3.2,0.3c8-6.1,9.5-17.5,3.5-25.4c-0.4-0.5-0.8-1-1.3-1.5
			c-0.7-0.1-1.4-0.2-2.2-0.3C4913,282.4,4909.4,298.7,4909.4,298.7z"/>
		<path class="st9" d="M4977.7,325.5l0.2,20.5c0,0,8.4,5.1,6.8,8s-16.9,3.3-18.3,0.6c-1.4-2.6,7-8.9,7-8.9l0.3-19.4L4977.7,325.5z"
			/>
		<path class="st13" d="M4975.9,333.4l16.1-13.5c0,0-3.9-7.7-17.4-6.2c-13.5,1.5-15.1,8.1-15.1,8.1L4975.9,333.4z"/>
		<path class="st9" d="M5003.4,394.8c0.4-3.9-2.5-7.4-6.4-7.8c-0.9-0.1-1.7,0-2.6,0.2c-13.5,3.6-39.5,7.4-57.6,1.5
			c-23.3-7.5-26.6-9.6-29.3-4.5s27.9,57.6,54.2,61.6c26.3,4,36.5-31.5,40.1-43.6C5002.6,399.8,5003.1,397.3,5003.4,394.8z"/>
		<path class="st9" d="M4907.5,596.2c7.6,43.2,17.1,121.6,17.1,121.6s8-0.8,12.2-0.9c5.2-0.1,13.7,1.1,15.7,1.4
			c6.8-16.3,36.7-89.1,42.4-131.3c6.5-47.7,14.3-75.1-4.6-93.7c-18.9-18.6-78.2-14.8-85.7,11.3
			C4894.1,541.1,4899.7,551.8,4907.5,596.2z"/>
		<path class="st7" d="M5009.1,289.7c0,2.6,2.1,4.7,4.7,4.7c2.6,0,4.7-2.1,4.7-4.7s-2.1-4.7-4.7-4.7c0,0,0,0-0.1,0
			C5011.2,285,5009.1,287,5009.1,289.7C5009.1,289.6,5009.1,289.6,5009.1,289.7z"/>
		<path class="st7" d="M4921.7,290.5c0,2.6,2.1,4.7,4.7,4.7c2.6,0,4.7-2.1,4.7-4.7s-2.1-4.7-4.7-4.7c0,0,0,0-0.1,0
			C4923.8,285.8,4921.7,287.9,4921.7,290.5C4921.7,290.5,4921.7,290.5,4921.7,290.5z"/>
		
			<radialGradient id="SVGID_1_" cx="2979.6309" cy="-9422.918" r="102.04" gradientTransform="matrix(-0.98 -1.999975e-02 1.999975e-02 -0.98 6984.4849 -8541.4854)" gradientUnits="userSpaceOnUse">
			<stop  offset="0" style="stop-color:#9A6A42"/>
			<stop  offset="1" style="stop-color:#7D4E24"/>
		</radialGradient>
		<path class="st14" d="M3903.6,506.9c0,0,35.8,55.8,40,77c8,40-13.7,162.6-13.7,162.6l-10.5-0.2l-11.1-48.8l-77.9-0.8l-11.5,47.5
			l-12.1-0.3c0,0-17.2-124.5-8.7-164.9c4.1-19.7,36.3-72.1,36.3-72.1L3903.6,506.9z"/>
		<path class="st15" d="M3899.4,506.9c9.3,17,38,71.4,42,94.5c2.1,12.5,2.3,31.3,1.3,52.6c2.7-27.8,4-54.9,0.9-70.1
			c-4.3-21.3-40-77-40-77L3899.4,506.9z"/>
		
			<radialGradient id="SVGID_2_" cx="2975.511" cy="-9452.8584" r="50.68" gradientTransform="matrix(-0.98 -1.999975e-02 1.999975e-02 -0.98 6984.4849 -8541.4854)" gradientUnits="userSpaceOnUse">
			<stop  offset="0" style="stop-color:#B07F4A"/>
			<stop  offset="1" style="stop-color:#98693D"/>
		</radialGradient>
		<path class="st16" d="M3908.3,697.5L3908.3,697.5l-77.8-0.8v0.1v-0.1C3878.9,568.9,3908.3,697.5,3908.3,697.5z"/>
		<path class="st17" d="M3834.4,507h7.7c-30.9,40.3-50.1,103.4-13.7,198.2l-9.5,39.1l-12.1-0.3c0,0-17.2-124.5-8.7-164.9
			C3802.2,559.3,3834.4,507,3834.4,507z"/>
		<g class="st18">
			<path class="st19" d="M3934.5,718.8c-2.5,16.6-4.5,27.7-4.5,27.7l-10.5-0.2l-11-48.4C3909.7,700.9,3918.2,718.4,3934.5,718.8z"/>
			<polygon class="st19" points="3908.3,697.6 3908.3,697.6 3908.3,697.6 			"/>
		</g>
		<path class="st20" d="M3830.4,696.8L3830.4,696.8c4.5-11,7.9-19.4,11.7-26.7c6,13,22.8,26.2,66.2,27.5L3830.4,696.8L3830.4,696.8z
			"/>
		<path class="st21" d="M3834.4,507c0,0-11.5,18.7-21.6,37.9c19.6,2,38.8,2,51.5,0.1c1.3-0.2,2.6-0.6,3.8-1c1.1,1.6,2.6,3,4.3,3.9
			c1.6,0.6,6,0,8-0.8c2.6-1.1,4.9-2.7,6.9-4.6c1.3-1.5,3.2-5,3.3-6.6c0-1.7-0.4-3.3-1.2-4.8c6.4-5.7,12.4-11.7,18.1-18.1
			c-2.3-3.8-3.8-6-3.8-6L3834.4,507z"/>
		
			<radialGradient id="SVGID_3_" cx="11119.2314" cy="-10233.3096" r="214" gradientTransform="matrix(0.92 0.33 0.33 -0.92 -3078.1292 -12725.8135)" gradientUnits="userSpaceOnUse">
			<stop  offset="0" style="stop-color:#9A6A42"/>
			<stop  offset="1" style="stop-color:#7D4E24"/>
		</radialGradient>
		<path class="st22" d="M3836.5,425.7c40.8-21.1,91.2,4.9,111.8,23.1c6.7-13.3,11.1-26.1,11.4-36.4c0.5-20.2-26.4-55.5-40.4-70
			l-0.3-0.3c22.6-11.3,57.2-29.7,68.7-42.1c7.5-8.1,17.8-28.8,19.1-39.8c3.9-33.3-4.5-107.9-28.8-130.9c-2.9-2.7-11.6-3-15.5-2.5
			c-28.3,4-81.5,30.6-103.3,49c-6.9,5.8-18,21-20.8,29.6c-6.2,19.3-5.2,64.9-3.5,96.8c-33.6,6.3-80.6,30.5-101.4,52.2
			c-10.8-22.1-31.3-61.6-44.7-74c-8.1-7.5-28.8-17.8-39.8-19.1c-33.3-3.9-107.9,4.5-131,28.8c-2.7,2.9-3.1,11.6-2.6,15.5
			c4,28.3,30.6,81.5,49,103.3c5.8,6.9,21,18,29.6,20.8c24.5,7.9,91.6,4,119.1,2c0.1,1.6,0.2,3.2,0.4,4.6c2.8,22.7,20.2,70,39.2,82.7
			c8.5,5.7,21.8,10,36.7,13C3784.3,460.4,3816.8,435.9,3836.5,425.7z"/>
		<path class="st15" d="M3686.8,284.1c-7.8-7.4-27.9-17.5-38.6-18.7c-29.2-3.2-101.9,10-132.6,30.5c0.4-2.5,1.1-4.7,2.3-5.9
			c23.1-24.3,97.7-32.7,131-28.8c11,1.3,31.7,11.6,39.8,19.1c6.2,5.7,13.9,17.2,21.5,30.2C3700.9,299.1,3692.1,289.2,3686.8,284.1z"
			/>
		<path class="st15" d="M3974.1,135c-3-2.7-12.1-3.2-16.1-2.7c-23.3,2.9-62.7,20-89.1,36c25.3-17.4,68.8-38,93.4-41.5
			c3.9-0.5,12.6-0.2,15.5,2.5c24.4,23,32.7,97.6,28.8,130.9c-0.2,1.3-0.4,2.7-0.8,4C4008.7,229.6,3999,157.8,3974.1,135z"/>
		<circle class="st7" cx="3763.9" cy="457.8" r="28.1"/>
		<circle class="st23" cx="3763.7" cy="458.5" r="20.9"/>
		<circle class="st7" cx="3754.1" cy="449.7" r="4.3"/>
		
			<linearGradient id="SVGID_4_" gradientUnits="userSpaceOnUse" x1="8237.1699" y1="-9413.1074" x2="8338.9893" y2="-9296.4971" gradientTransform="matrix(-0.9 0.43 -0.43 -0.9 7090.4233 -11615.2275)">
			<stop  offset="0" style="stop-color:#926037"/>
			<stop  offset="1" style="stop-color:#B07F4A"/>
		</linearGradient>
		<path class="st24" d="M3726.5,374.7c0,0-47.2-59.1-65.2-73c-4.3-3.4-14.4-8.4-19.8-9.2c-23.4-3.5-73.3,0.9-93.8,12.8
			c-3.6,2.1-9.9,9.2-10.3,13.3c-2.3,23.9,26.3,68.5,43,85.7c3.9,4,14.3,9.4,19.8,10.8c22.1,5.9,112.2,1.9,112.2,1.9L3726.5,374.7z"
			/>
		<circle class="st7" cx="3903.5" cy="385.7" r="28.1"/>
		<path class="st23" d="M3896.3,405.8c-10.9-3.9-16.6-15.9-12.7-26.7c3.9-10.9,15.9-16.6,26.7-12.7c10.9,3.9,16.6,15.9,12.7,26.7
			c0,0,0,0,0,0C3919.1,403.9,3907.2,409.6,3896.3,405.8z"/>
		<circle class="st7" cx="3893.5" cy="379.6" r="4.3"/>
		
			<linearGradient id="SVGID_5_" gradientUnits="userSpaceOnUse" x1="8042.8765" y1="-9397.1924" x2="7908.8564" y2="-9304.9521" gradientTransform="matrix(-0.9 0.43 -0.43 -0.9 7090.4233 -11615.2275)">
			<stop  offset="0" style="stop-color:#926037"/>
			<stop  offset="1" style="stop-color:#B07F4A"/>
		</linearGradient>
		<path class="st25" d="M3855.1,308.7c0,0,2.7-68.8,10.2-90.2c1.8-5.1,7.6-14.9,11.7-18.5c17.8-15.6,62.1-39,85.8-40.1
			c4.2-0.2,13.2,2.4,15.8,5.6c14.9,18.8,15,71.8,10.4,95.3c-1.1,5.5-7,15.6-10.8,19.8c-15.4,17-75.9,51.3-75.9,51.3L3855.1,308.7z"
			/>
		
			<radialGradient id="SVGID_6_" cx="8217.6387" cy="-9427.9658" r="37.28" gradientTransform="matrix(-0.88 0.42 -0.42 -0.88 7121.2534 -11371.1602)" gradientUnits="userSpaceOnUse">
			<stop  offset="0" style="stop-color:#FFECB3"/>
			<stop  offset="1" style="stop-color:#D2BD8B"/>
		</radialGradient>
		<path class="st26" d="M3808.2,375.1c31.1,35.7,56.5,47.3,66.4,54.5l-61.1,29C3818.2,414.8,3808.2,375.1,3808.2,375.1z"/>
		
			<radialGradient id="SVGID_7_" cx="11188.3418" cy="-10316.9102" r="116.24" gradientTransform="matrix(0.92 0.33 0.33 -0.92 -3078.1292 -12725.8135)" gradientUnits="userSpaceOnUse">
			<stop  offset="0" style="stop-color:#FFECB3"/>
			<stop  offset="1" style="stop-color:#D2BD8B"/>
		</radialGradient>
		<path class="st27" d="M3886.1,527c19-14.1,46.8-47.6,62.2-78.2c-20.5-18.2-71-44.2-111.8-23.1c-19.6,10.2-52.2,34.7-47.1,106.3
			c27,5.5,59.2,6.7,77.6,4C3872.2,535.3,3881.8,530.1,3886.1,527z"/>
		<path class="st28" d="M3830.1,429.4c2.2-1.4,4.4-2.6,6.4-3.6c40.8-21.1,91.2,4.9,111.8,23.1c-0.4,0.7-0.7,1.5-1.1,2.2
			C3921.7,431.7,3871.6,409.2,3830.1,429.4z"/>
		<path class="st29" d="M3907.8,506.5c-7.7,8.5-15.3,15.6-21.8,20.5c-4.2,3.1-13.9,8.3-19.1,9.1c-18.4,2.7-50.6,1.5-77.6-4
			c-2.5-34.9,4-58.6,13.6-75C3802.9,488.8,3811.9,570,3907.8,506.5z"/>
		<path class="st30" d="M3883.9,509.9c0,0,9.4,10.7,9.3,17c0,1.6-2,5.1-3.3,6.6c-2,1.9-4.3,3.5-6.9,4.6c-2,0.7-6.4,1.5-8,0.8
			c-5.8-2.4-11.3-17.6-11.3-17.6l6.2-12.7L3883.9,509.9z"/>
		<polygon class="st31" points="3872.1,507.9 3882,526.8 3870.3,509.2 		"/>
		<path class="st23" d="M3867.5,507.9l-19.4-42.1l5.5,1.7l18.5,37.7l29.1,6.5c-1.3,0.8-2.7,1.5-4.1,2.3l-25.5-2.6l-9.6,18.2
			c-1.9,0.7-3.8,1.4-5.7,2L3867.5,507.9z"/>
		<path class="st23" d="M3868.9,449.8c-10.2-11.6-47.1,6-44.8,21.2c1.5,9.9,27.8,18.5,35.3,15.4
			C3867.6,483.2,3876.2,458.1,3868.9,449.8z"/>
		<path class="st17" d="M3780.1,502c0,0,10.5-28.3,20.9-41.2c-8.4,16.2-13.9,38.9-11.6,71.4c-14.8-3-28.1-7.4-36.7-13
			c-19.1-12.6-36.4-60-39.2-82.7c-0.2-1.4-0.3-3-0.4-4.6C3713.1,431.8,3745.3,524.1,3780.1,502z"/>
		<path class="st15" d="M3918.9,348.4l-0.3-0.3c-42.1-36-87.6-41.1-87.6-41.1c-23.9,4-54.3,16.6-77.9,31
			c23.6-16.3,56.4-31.2,81.6-35.9c0,0,43.9,4.5,84.1,39.8l0.3,0.3c12.7,13.2,36,43.4,39.9,64
			C3951.7,386.2,3930.9,360.4,3918.9,348.4z"/>
		
			<radialGradient id="SVGID_8_" cx="3574.7458" cy="-6950.2983" r="232.41" gradientTransform="matrix(-0.98 3.999950e-02 -3.999950e-02 -0.98 8746.2432 -6336.7432)" gradientUnits="userSpaceOnUse">
			<stop  offset="0" style="stop-color:#FFECB3"/>
			<stop  offset="1" style="stop-color:#FFE082"/>
		</radialGradient>
		<path class="st32" d="M5237.6,476.1c3.2-33.6,66.4-117.8,66.4-117.8l388.4,10.6c0,0,67,93.6,67.1,130.3
			c0.1,47.7-48.4,141.4-86.6,170c-13.6,10.1-42.2,14-67.3,16.2l-20.5,53l-11.3-5.7l-10-44c-33.2,2.6-86.7,4.2-121.4,1.1l-7.2,48.3
			l-10.8,6.5l-29.9-62.4c-36.6-7.3-82-19.3-100.5-37.6C5262.4,613.2,5233.4,520.3,5237.6,476.1z"/>
		<path class="st33" d="M5665,672.7c38.1-30.5,86.4-130.8,86.2-181.9c-0.1-19.3-16.3-53.3-32.9-82.9c18.9,30.1,41.1,70.1,41.2,91.3
			c0.1,47.7-48.4,141.4-86.6,170c-3.5,2.5-7.2,4.5-11.2,5.9C5662.9,674.4,5664,673.6,5665,672.7z"/>
		<path class="st34" d="M5237.6,476.1c3.2-33.6,66.4-117.8,66.4-117.8l17.2,0.5c-73.2,113.6-101,248.4,97.6,319.4
			c0,0-9.7,40.3,16.6,57.8l-0.3,2l-10.8,6.5l-29.9-62.4c-36.6-7.3-82-19.3-100.5-37.6C5262.4,613.2,5233.4,520.3,5237.6,476.1z"/>
		<path class="st35" d="M5304,358.3l388.4,10.6c0,0,10,14,22.4,33.4c-5.9,32.7-25.6,80.7-43.6,100.5c-5.7,6.3-15.6,13-26.8,19.1
			c-2.8,10.1-6.9,18.5-12.5,24.1c-14.5,14.6-60.7,14.4-81.4,15.6c-28.9,1.7-86.9-4.5-115.6-8c-19.2-2.4-64,1.3-76.2-13.4
			c-3.3-4.1-5.7-8.8-7.2-13.9c-15.9-7.8-31.6-17.6-38.3-27c-15.7-21.9-30.7-70.9-33.9-105.9C5292.7,373.4,5304,358.3,5304,358.3z"/>
		
			<radialGradient id="SVGID_9_" cx="-1665.3623" cy="-6678.959" r="247.68" gradientTransform="matrix(1 0 0 -1 -2490.9465 -6423.082)" gradientUnits="userSpaceOnUse">
			<stop  offset="0" style="stop-color:#FFECB3"/>
			<stop  offset="1" style="stop-color:#FFE082"/>
		</radialGradient>
		<path class="st36" d="M5411.9,195.4c40-13.6,127.3-14.4,168.7-6.5c27.6,5.2,84.2,24.2,102.8,45.1c22.9,25.6,41.7,97,40.4,131.3
			c-1.1,30.8-24,92.2-44.7,115.1c-14.5,16.1-56,34.9-77.2,39.8c-50,11.7-155.7,10.1-205.2-3.4c-19.6-5.4-59.1-23.5-70.9-40.1
			c-19-26.7-36.8-93.9-33.8-126.5c2.7-29.2,32.9-82.6,50.8-106C5355.9,227.5,5391.9,202.2,5411.9,195.4z"/>
		<path class="st33" d="M5719.1,370.4c1.2-34.9-17.8-107.3-40.8-133.3c-18.8-21.3-75.8-40.5-103.6-45.9
			c-40.4-7.7-123.8-7.3-165.7,5.2c1-0.4,1.9-0.8,2.8-1.1c40-13.6,127.3-14.4,168.7-6.5c27.6,5.2,84.2,24.2,102.8,45.1
			c22.9,25.6,41.7,97,40.4,131.3c-1.1,30.2-23.1,89.6-43.4,113.6C5699.4,451.5,5718.1,398.5,5719.1,370.4z"/>
		<path class="st37" d="M5326,476.7c-19-26.7-36.8-93.9-33.8-126.5c2.7-29.2,32.9-82.6,50.8-106c1.8-2.3,3.8-4.6,5.9-6.7
			c-40,70.3-65.4,155.8,6.1,202.9c0,0,18.9-132.4,115.2-126.4l5.1,213.1c-30.3-1.5-58.8-5-78.4-10.3
			C5377.3,511.5,5337.8,493.3,5326,476.7z"/>
		<path class="st38" d="M5543.9,321.9c-4.5-15.9,12-50,23.6-61.8c5.4-5.4,20.8-10.6,28.5-11.2c16.8-1.3,51.3,5.9,65.6,14.8
			c8.8,5.5,22.6,22.4,25.8,32.2c5.9,17.9,8.6,60.3-2.9,75.2c-8,10.4-35.2,21-48.3,20.6C5607.2,391,5551.9,349.7,5543.9,321.9z"/>
		<path class="st38" d="M5472.4,331.3c6.6-15.2-5.4-51.2-15.4-64.3c-4.6-6.1-19.3-13.2-26.8-14.8c-16.4-3.5-51.6-0.9-66.9,6.1
			c-9.4,4.3-25.3,19.3-29.8,28.6c-8.2,16.9-16.5,58.7-7,74.9c6.6,11.3,32.1,25.4,45.2,26.8C5400.7,391.5,5460.9,357.8,5472.4,331.3z
			"/>
		<circle class="st7" cx="5380.7" cy="305" r="38.9"/>
		<circle class="st23" cx="5380.7" cy="305.2" r="27.8"/>
		<path class="st7" d="M5398.3,295.9c-0.6,3.8-4.2,6.3-8,5.7c-3.8-0.6-6.3-4.2-5.7-8c0.6-3.8,4.2-6.3,8-5.7c0,0,0,0,0,0
			C5396.4,288.6,5398.9,292.1,5398.3,295.9z"/>
		
			<radialGradient id="SVGID_10_" cx="3556.4858" cy="-6686.0083" r="205.25" gradientTransform="matrix(-0.98 3.999950e-02 -3.999950e-02 -0.98 8746.2432 -6336.7432)" gradientUnits="userSpaceOnUse">
			<stop  offset="0" style="stop-color:#8D6E63"/>
			<stop  offset="1" style="stop-color:#5D4037"/>
		</radialGradient>
		<path class="st39" d="M5460,309.1c26.7-7.6,85.2-6,111,4.4c23.2,9.3,65,43.4,74.8,66.4c14.1,33,19.9,118-5.2,143.7
			c-14.3,14.6-59.9,14.4-80.3,15.6c-28.5,1.7-89-1-117.4-4.6c-19-2.4-59.8-2.2-71.9-17c-26.5-32.4,3-130.3,25.4-165.6
			C5406.6,335.7,5441.5,314.3,5460,309.1z"/>
		<path class="st28" d="M5641.9,383.7c-9.9-24-51.7-59.8-74.9-69.6c-16.9-7.1-47.8-10.3-74.6-9.5c27.7-1.3,60.9,1.7,78.6,8.8
			c23.2,9.4,65,43.5,74.8,66.5c12.5,29.2,18.4,98.7,2.4,132.3C5659.5,474.8,5653.4,411.6,5641.9,383.7z"/>
		<circle class="st7" cx="5638.3" cy="307.1" r="38.9"/>
		<circle class="st23" cx="5638.4" cy="307.7" r="27.8"/>
		<path class="st7" d="M5654.9,296.7c-0.6,3.8-4.2,6.3-8,5.7c-3.8-0.6-6.3-4.2-5.7-8c0.6-3.8,4.2-6.3,8-5.7
			C5653,289.4,5655.6,293,5654.9,296.7z"/>
		<path class="st40" d="M5640.7,207.7c17.9,7.6,34.3,16.7,42.8,26.3c15.5,17.4,29.1,55.8,35.9,89.4
			C5660.3,299.8,5643.2,221,5640.7,207.7z"/>
		<path class="st40" d="M5343,244.2c12.8-16.8,48.9-42.1,68.9-48.9c3.2-1.1,6.8-2.1,10.6-3l0.6,7c-33.1,51.2-79.9,80-110.5,94.4
			C5322.6,274.2,5334.3,255.6,5343,244.2z"/>
		<polygon class="st41" points="5606.2,218.5 5554.6,223.1 5536.5,278.9 5564.3,228.5 		"/>
		<polygon class="st41" points="5416,225.9 5467.9,226.4 5490.2,280.7 5458.5,232.6 		"/>
		<path class="st42" d="M5428.4,167.7L5281.2,191l-4.4,98c0,0,90.4-15.7,151.2-92.7L5428.4,167.7z"/>
		<g class="st43">
			<polygon class="st7" points="5281.2,191.3 5281.2,191 5334.6,182.5 			"/>
			<path class="st7" d="M5424.2,197.6l0.2-29.3l4-0.6l-0.3,28.5c-12.4,15.6-26.7,29.7-42.5,41.9
				C5399.9,226.1,5412.9,212.5,5424.2,197.6z"/>
		</g>
		<path class="st42" d="M5633.8,202c0,0,31.1,95.7,105.1,105.2l38.1-51.2l-117.2-69.9L5633.8,202z"/>
		<path class="st28" d="M5770.7,258.8l-113.2-71.2l2.4-1.5l117.2,69.9l-38.1,51.2c-0.7-0.1-1.4-0.2-2.1-0.3L5770.7,258.8z"/>
		<path class="st34" d="M5507.7,539.1c-24.2-0.9-49.4-2.6-64.9-4.5c-19-2.4-59.8-2.2-71.9-17c-26.5-32.4,3-130.3,25.4-165.6
			c6-9.5,20.6-20.8,35.3-29.6C5396.5,377.2,5327.2,516.4,5507.7,539.1z"/>
		<path class="st23" d="M5509.6,457.7l3.5-128.8l5,4.5l-2.3,123.8l62.7,77.4c-1.7,0.2-3.5,0.3-5.4,0.4l-60.8-71.5l-57.6,62
			c-2.4-0.2-4.7-0.4-7-0.6L5509.6,457.7z"/>
		<path class="st23" d="M5548.3,303.1c-11-11.8-52.7-12.8-64.6-1.9c-6.4,5.9-1.5,26.8,1.7,34.9c1.4,3.5,6.4,9.6,9.6,11.5
			c7.1,4.1,24.4,7.7,32.3,5.8c4.5-1.1,12.2-7.3,14.5-11.3C5547,333.7,5555,310.4,5548.3,303.1z"/>
		<path class="st35" d="M5563.8,688.7c-33.2,2.6-86.7,4.2-121.4,1.1l1.3-9.2C5443.6,680.5,5454.3,694.3,5563.8,688.7z"/>
		<path class="st44" d="M5588.7,729l-3.6,9.3l-11.3-5.7l-10-44C5563.8,688.7,5571.3,713.8,5588.7,729z"/>
		
			<radialGradient id="SVGID_11_" cx="8446.1455" cy="-7764.9854" r="160.6366" gradientTransform="matrix(-0.98 9.999875e-03 -9.999875e-03 -0.98 9046.7695 -7085.1538)" gradientUnits="userSpaceOnUse">
			<stop  offset="0" style="stop-color:#FFB74D"/>
			<stop  offset="1" style="stop-color:#FB8C00"/>
		</radialGradient>
		<path class="st45" d="M721.2,574.3c-1-81.5,64.3-148.3,145.8-149.3c81.5-1,148.3,64.3,149.3,145.8c0.4,33-10.3,65.2-30.3,91.4
			c18.6,27.3,11.6,64.5-15.7,83.2c-27.3,18.6-64.5,11.6-83.2-15.7c-2.2-3.2-4-6.5-5.5-10c-3.7,0.3-7.4,0.5-11.1,0.6
			c-7.1,0.1-14.2-0.4-21.2-1.3c-11.8,30.9-46.4,46.3-77.2,34.6c-30.9-11.8-46.3-46.4-34.6-77.2c2.5-6.7,6.3-12.8,11-18.2
			C731,633.5,721.5,604.3,721.2,574.3z"/>
		<path class="st33" d="M992.2,698.7c-0.1-11.9-3.7-23.6-10.4-33.5c20.1-26.6,30.7-59.1,30.3-92.4c-0.9-81.8-66.6-147.5-147.1-147.7
			c0.7,0,1.4-0.1,2.1-0.1c81.5-1,148.3,64.2,149.3,145.7c0.4,33-10.3,65.2-30.3,91.4c17.1,25,12.8,58.8-10,78.8
			C986.7,729.4,992.4,714.3,992.2,698.7z"/>
		<path class="st46" d="M741,498.8c-10.2,68.4-2.7,136.8,54.1,168.7c0,0-58.9,43.9-18.5,87.4c-31.7-9.3-49.9-42.5-40.7-74.3
			c2.5-8.4,6.7-16.2,12.5-22.7C715.1,610.9,712.1,548.8,741,498.8L741,498.8z"/>
		<path class="st47" d="M867.1,425c59.4-0.7,113.5,34.3,137.1,88.8c-3.6,1.1-7.3,1.7-11,1.8c-4,0-8-0.6-11.8-1.8c0,0.3,0,0.6,0,0.9
			c0.3,20.6-16.2,37.6-36.9,37.8c-5.8,0.1-11.6-1.2-16.8-3.8c-10,18.1-32.7,24.6-50.7,14.6c-4.7-2.6-8.7-6.1-11.9-10.4
			c-8.4,18.8-30.4,27.3-49.3,19c-8.1-3.6-14.6-9.9-18.5-17.9c-15.7,13.4-39.3,11.5-52.7-4.3c-2.7-3.2-4.8-6.7-6.3-10.6
			c-4.4,1.9-9.2,2.9-14,3C738.5,474.6,797.9,425.8,867.1,425z"/>
		<circle class="st48" cx="1060" cy="97.8" r="59.8"/>
		<path class="st33" d="M1117.8,97.3c-0.4-32.6-26.8-58.9-59.5-59.1c0.4,0,0.7,0,1.1,0c33.1-0.2,60,26.4,60.2,59.5
			c0.2,32.8-26,59.6-58.8,60.2h-1.1C1092.4,156.9,1118.2,130,1117.8,97.3z"/>
		<circle class="st48" cx="673" cy="83.2" r="59.8"/>
		<circle class="st49" cx="673.2" cy="83" r="32.1"/>
		<circle class="st49" cx="1059.9" cy="98.2" r="32.1"/>
		
			<radialGradient id="SVGID_12_" cx="4369.4429" cy="-7349.8711" r="272.76" gradientTransform="matrix(1 0 0 -1 -2490.9465 -6423.082)" gradientUnits="userSpaceOnUse">
			<stop  offset="0" style="stop-color:#FFB74D"/>
			<stop  offset="1" style="stop-color:#FB8C00"/>
		</radialGradient>
		<path class="st50" d="M610.1,321.2c10.6-31.9,6-66.8-12.4-94.9c20.2-4.3,33.1-24.2,28.8-44.4c-1-4.9-3.1-9.5-5.9-13.6
			c-0.2-20.7,16.3-37.6,37-37.8c0,0,0,0,0,0c1.3,0,2.6,0,3.8,0.1c-8-19,0.9-40.9,19.9-49c8.3-3.5,17.6-3.9,26.1-1.1
			c-0.1-1-0.2-2-0.2-3C706.9,56.9,723.4,40,744,39.7c7-0.1,13.8,1.8,19.8,5.4c5.5-19.9,26.1-31.5,45.9-26.1
			c4.5,1.2,8.7,3.3,12.4,6.1C833.6,8,856.8,3.4,874,14.9c5,3.4,9.1,7.9,12,13.2c14.2-15,37.9-15.6,52.9-1.4
			c5.5,5.2,9.2,11.9,10.8,19.3c16.9-11.8,40.3-7.7,52.1,9.3c4.3,6.2,6.6,13.5,6.7,21c0,1.3,0,2.5-0.1,3.8
			c17.8-10.4,40.7-4.3,51.1,13.6c3.2,5.6,5,11.9,5,18.4c0,2.6-0.2,5.1-0.7,7.6c15.3,32.3,34.6,62.5,57.4,90.1
			c-12.6,16.3-9.6,39.8,6.7,52.4c2.7,2.1,5.7,3.8,8.9,5.1c-16.3,12.6-19.3,36-6.7,52.3c0.3,0.4,0.6,0.8,0.9,1.2
			c-9.1,10.7-11.4,25.6-6,38.5c0.2,20.4-16,37.2-36.4,37.8c10.3,17.9,4.1,40.7-13.8,51c-5.5,3.2-11.8,4.9-18.2,5
			c-2.1,0-4.2-0.1-6.2-0.5c4.7,20.1-7.8,40.2-27.9,44.9c-6.6,1.5-13.5,1.3-19.9-0.8c0,0.3,0.1,0.6,0.1,0.9
			c0.3,20.6-16.2,37.6-36.8,37.8c-5.8,0.1-11.6-1.2-16.9-3.8c-10,18.1-32.7,24.6-50.7,14.7c-4.7-2.6-8.7-6.1-11.9-10.4
			c-8.4,18.8-30.5,27.3-49.3,19c-8.1-3.6-14.6-9.9-18.4-17.9c-15.7,13.4-39.3,11.5-52.6-4.2c-2.7-3.2-4.8-6.8-6.4-10.6
			c-19,8.1-41-0.8-49-19.8c-1.9-4.5-2.9-9.3-3-14.2c0-0.3,0-0.6,0-0.9c-19.5,6.8-40.8-3.6-47.5-23.1c-2.9-8.4-2.7-17.5,0.5-25.8
			c-16.9-32.3-37.5-62.6-61.5-90.1C599,338.1,602.9,328.3,610.1,321.2z"/>
		<g class="st51">
			<path class="st7" d="M947.5,46c-3.6-17-18.5-29.2-35.9-29.5c0.3,0,0.7-0.1,1-0.1c17.3-0.2,32.5,11.6,36.7,28.4
				C948.7,45.2,948.1,45.5,947.5,46z"/>
			<path class="st7" d="M1006.2,80c0.1-1.2,0.2-2.5,0.1-3.8c-0.2-20.3-16.6-36.7-36.9-36.9c0.4,0,0.8-0.1,1.2-0.1
				c20.7-0.2,37.6,16.3,37.8,37c0,0,0,0,0,0c0,0.9,0,1.7-0.1,2.6C1007.6,79.2,1006.9,79.6,1006.2,80z"/>
			<path class="st7" d="M1091.5,415.1c-0.1-6.4-1.8-12.6-4.9-18.1c35.6-14.5,52.7-55,38.2-90.6c-1.3-3.2-2.8-6.3-4.6-9.3
				c-14.1-27.4-14.5-59.8-1.1-87.5c-19.7-6.1-30.8-27.1-24.6-46.8c0.7-2.2,1.6-4.3,2.6-6.4c-0.2-19.7-15.7-35.8-35.4-36.9
				c4-20.3-9.3-39.9-29.5-43.8c-2.2-0.4-4.5-0.7-6.8-0.7c0.4,0,0.9-0.1,1.3-0.1c20.7-0.2,37.6,16.3,37.8,37c0,0,0,0,0,0
				c0,2.6-0.2,5.1-0.7,7.6c15.3,32.3,34.6,62.5,57.4,90.1c-12.6,16.3-9.6,39.8,6.7,52.4c2.7,2.1,5.7,3.8,8.9,5.1
				c-16.3,12.6-19.3,36-6.7,52.3c0.3,0.4,0.6,0.8,0.9,1.2c-9.1,10.7-11.4,25.6-6,38.5c0.2,20.4-16,37.2-36.4,37.8
				c10.3,17.9,4.1,40.7-13.8,51c-5.5,3.2-11.8,4.9-18.2,5c-0.4,0-0.7,0-1.1,0C1075.8,452.2,1091.7,435.4,1091.5,415.1z"/>
			<path class="st7" d="M883.8,28C877.4,16.2,865,8.8,851.5,8.6l1.1,0c13.3-0.2,25.7,6.8,32.5,18.2C884.7,27.2,884.3,27.6,883.8,28z
				"/>
			<path class="st7" d="M1049.2,460.5c0-2.7-0.4-5.4-1-8c0.7,0.1,1.5,0.2,2.2,0.3c4.6,20.1-8,40.1-28.1,44.6
				c-2.6,0.6-5.3,0.9-7.9,0.9c-0.4,0-0.8,0-1.2,0C1033.5,497.5,1049.5,480.7,1049.2,460.5z"/>
		</g>
		<g class="st52">
			<path class="st47" d="M589.8,288.3c18.6-9,26.3-31.3,17.3-49.9c-2.3-4.7-5.5-8.8-9.5-12.2c20.2-4.3,33.1-24.2,28.8-44.4
				c-1-4.9-3.1-9.5-5.9-13.6c-0.2-20.7,16.3-37.6,37-37.8c0,0,0,0,0,0c1.3,0,2.6,0,3.8,0.1c-8-19,0.9-40.9,19.9-49
				c8.3-3.5,17.6-3.9,26.1-1.1c-0.1-1-0.2-2-0.2-3c-0.2-20.7,16.3-37.6,37-37.8c0,0,0,0,0,0c5.4-0.1,10.7,1.1,15.7,3.3
				c-5.2,6.7-8.1,14.9-8,23.4c0,1,0.1,2,0.2,3c-19.6-6.4-40.7,4.3-47.1,24c-2.8,8.5-2.4,17.8,1.1,26.1c-1.3-0.1-2.5-0.2-3.8-0.1
				c-13.4,35.6-33.7,68.2-59.8,95.8c15.7,13.3,17.7,36.9,4.4,52.6c-3.4,4-7.5,7.2-12.2,9.5c18.4,9.4,25.6,32,16.1,50.3
				c-1.8,3.5-4.1,6.7-6.9,9.4c20,5,32.1,25.3,27.1,45.3c-0.7,2.7-1.7,5.3-2.9,7.8c0.2,20.5,16.9,37,37.3,37
				c-7.5,19.2,2.1,40.9,21.3,48.4c8.3,3.2,17.4,3.4,25.8,0.5c0,0.3,0,0.6,0,0.9c0.2,20.6,17.1,37.2,37.8,37c4.9-0.1,9.7-1.1,14.2-3
				c7.5,19.2,29.2,28.7,48.4,21.2c3.9-1.5,7.4-3.7,10.6-6.3c3.8,7.9,10.3,14.2,18.3,17.8c-12.6,16.3-36,19.3-52.3,6.7
				c-4.6-3.5-8.2-8.1-10.8-13.3c-15.7,13.4-39.3,11.5-52.6-4.2c-2.7-3.2-4.8-6.8-6.4-10.6c-19,8.1-41-0.8-49-19.8
				c-1.9-4.5-2.9-9.3-3-14.2c0-0.3,0-0.6,0-0.9c-19.5,6.8-40.8-3.6-47.5-23.1c-2.9-8.4-2.7-17.5,0.5-25.8
				c-16.9-32.3-37.5-62.6-61.5-90.1c14.7-14.5,14.8-38.2,0.3-52.9C596.5,292.5,593.3,290.1,589.8,288.3z"/>
		</g>
		
			<radialGradient id="SVGID_13_" cx="8456.9795" cy="-7544.2441" r="60.36" gradientTransform="matrix(-0.9758 1.414195e-02 -1.414195e-02 -0.9758 9039.5879 -7099.5454)" gradientUnits="userSpaceOnUse">
			<stop  offset="0" style="stop-color:#FFE0B2"/>
			<stop  offset="1" style="stop-color:#FFCC80"/>
		</radialGradient>
		<circle class="st53" cx="864.4" cy="422.4" r="75.3"/>
		<path class="st33" d="M937.6,423c-0.5-42-34.9-75.6-76.9-75.1c-5.4,0.1-10.8,0.7-16.1,1.9c40.1-10.9,81.5,12.7,92.4,52.8
			c7.9,28.9-2.1,59.6-25.4,78.4C928.3,466.5,937.8,445.2,937.6,423z"/>
		
			<radialGradient id="SVGID_14_" cx="8464.8955" cy="-7559.3652" r="54.55" gradientTransform="matrix(-0.98 9.999875e-03 -9.999875e-03 -0.98 9046.7695 -7085.1538)" gradientUnits="userSpaceOnUse">
			<stop  offset="0" style="stop-color:#FFE0B2"/>
			<stop  offset="1" style="stop-color:#FFCC80"/>
		</radialGradient>
		<path class="st54" d="M830.5,355.3c-33.5,24.6-40.7,71.7-16.1,105.2c21.8,29.6,61.8,39.2,94.6,22.7
			c-33.5,24.6-80.6,17.4-105.2-16.1c-24.6-33.5-17.4-80.6,16.1-105.2C823.2,359.3,826.8,357.1,830.5,355.3z"/>
		<path class="st23" d="M862.2,438.1l-0.2-58.6l4.5,4l1.3,54.1l24.7,18.8c-1.6,0.2-3.2,0.3-4.9,0.4l-23-13.5l-17,13
			c-2.1-0.2-4.2-0.4-6.3-0.5L862.2,438.1z"/>
		<path class="st23" d="M893.3,375.4c-5.5-18.5-56.5-17.8-61.9,0.7c-3.5,12,22,35.5,32,35.9C874.4,412.5,897.3,388.5,893.3,375.4z"
			/>
		<path class="st23" d="M909,349.9c0.1,10.6,8.8,19.1,19.5,19c10.6-0.1,19.1-8.8,19-19.5c-0.1-10.6-8.8-19.1-19.5-19c0,0,0,0,0,0
			C917.4,330.5,908.9,339.2,909,349.9z"/>
		<path class="st23" d="M778.6,351.3c0.1,10.6,8.8,19.1,19.5,19c10.6-0.1,19.1-8.8,19-19.5c-0.1-10.6-8.8-19.1-19.5-19c0,0,0,0,0,0
			C787,332,778.5,340.7,778.6,351.3z"/>
		<path class="st46" d="M848,679.7c16.5,9.8,60.7,8.5,60.7,8.5c-4.6,30.1,13.7,52.4,33.2,67.1c-1.5,0.1-3,0.2-4.6,0.3
			c-24.1,0.3-46.1-14-55.7-36.1c-3.7,0.3-7.4,0.5-11.1,0.6c-7.1,0.1-14.2-0.4-21.2-1.3C855,700.1,848,679.7,848,679.7z"/>
		<path class="st55" d="M1991.6,691.7l0.2-0.3l15.7-22.1c0.7-1,1.6-1.9,2.6-2.5c4.4-2.8,10.2-1.5,12.9,2.9
			c2.8,4.4,1.5,10.2-2.9,12.9l0,0l-17.4,10.9c7,3.3,13.8,7,20.5,11c7.4,4.4,14.8,9.1,21.8,14.2c0.5-0.2,1.1-0.3,1.6-0.3l1.4,0.1
			c3.3,0.3,6.4,1.7,9.6,2.7s6.3,2.3,9.4,3.6l0.9,0.4c0.3,0.1,0.5,0.3,0.6,0.5l13.9,16.1c0.5,0.6,0.5,1.4,0,2
			c-0.5,0.6-1.5,0.7-2.1,0.2l-15.3-13c-3.2-0.2-6.3-0.5-9.5-0.8c-1.2-0.2-2.5-0.3-3.7-0.5l4.7,14.6c0.4,1.3-0.3,2.7-1.5,3.1
			c-1.3,0.4-2.7-0.3-3.1-1.5l0,0l-5.8-16.1l-23.6,14.6c-0.8,0.5-1.9,0.3-2.5-0.6c-0.5-0.7-0.3-1.7,0.3-2.3l19.1-17.9
			c-7.2-3.1-14.3-6.6-21.2-10.3c-8.9-4.6-17.5-9.9-25.7-15.7C1990.7,696.3,1990.2,693.6,1991.6,691.7z"/>
		<path class="st55" d="M2056.1,682.4l0.2-0.3l15.7-22.1c0.7-1,1.6-1.8,2.7-2.5c4.4-2.8,10.2-1.4,12.9,2.9
			c2.8,4.4,1.4,10.2-2.9,12.9l0,0l-17.4,10.9c7,3.3,13.8,7,20.5,11c7.5,4.4,14.8,9.1,21.8,14.2c0.5-0.2,1.1-0.3,1.6-0.3l1.4,0.1
			c3.4,0.2,6.4,1.7,9.6,2.7s6.3,2.3,9.4,3.6l0.9,0.4c0.2,0.1,0.5,0.3,0.6,0.5l14,16.1c0.5,0.6,0.5,1.4,0,2c-0.5,0.6-1.5,0.7-2.1,0.2
			c0,0,0,0,0,0l-15.3-13c-3.2-0.2-6.3-0.5-9.5-0.9c-1.2-0.2-2.5-0.3-3.7-0.4l4.7,14.6c0.4,1.3-0.4,2.7-1.7,3c-1.2,0.3-2.5-0.3-3-1.5
			l-5.8-16.1l-23.6,14.6c-0.8,0.5-1.9,0.3-2.5-0.6c-0.5-0.7-0.3-1.7,0.3-2.3l19.1-18c-7.3-3.1-14.3-6.6-21.2-10.3
			c-8.9-4.6-17.5-9.9-25.7-15.7C2055.2,687.1,2054.7,684.4,2056.1,682.4C2056.1,682.4,2056.1,682.4,2056.1,682.4z"/>
		<path class="st56" d="M2207.8,375.5c-31-7.1-89.5-4.7-123.7,70.8l-44,70.8c0,0-245.4,243.9-267.9,327.4c0,0,54.5-37.3,92.6-71.5
			c106.8-96,213.2-57.8,258.7-102.4c57.8-56.5,62.7-121.6,69.7-152.1c7-30.5,43.4-51.5,49.9-79.9
			C2250.3,407.7,2235.1,381.8,2207.8,375.5z"/>
		<path class="st57" d="M1883.9,678.1c0,0-36.5,47.8-92.8,118.9c-49.6,62.8-91.9,176.9-91.9,176.9s32.1-60.5,136.7-173.8
			c52.3-56.5,127-87.7,164.1-146.1L1883.9,678.1z"/>
		<path class="st58" d="M2067.7,475.4c0,0-90.3,73.4-116.5,101.9c-39.9,43.5-103.9,130-103.9,130s75.1,1.6,150.4-43.8
			C2041.9,636.8,2193.5,546,2067.7,475.4z"/>
		<path class="st55" d="M2231.2,433.2c0,0,2.7,23.6,22.1,14.5C2253.3,447.7,2252.3,431.3,2231.2,433.2z"/>
		<path class="st59" d="M2220.3,419.7l21.6-13.2c0,0,25.5,17.6,12.2,49.1c0,0,0.1-13.5-10.9-17.1
			C2232.1,434.9,2221.4,436.7,2220.3,419.7z"/>
		<path class="st7" d="M2188.7,405.3c-1.8,8,3.2,15.9,11.1,17.7c8,1.8,15.9-3.2,17.7-11.1c1.8-8-3.2-15.9-11.1-17.7
			C2198.5,392.4,2190.5,397.4,2188.7,405.3C2188.7,405.3,2188.7,405.3,2188.7,405.3z"/>
		<path class="st59" d="M2197.4,407.3c-1,4.4,1.7,8.7,6.1,9.7c4.4,1,8.7-1.7,9.7-6.1c1-4.3-1.7-8.7-6.1-9.7
			C2202.8,400.3,2198.4,403,2197.4,407.3C2197.4,407.3,2197.4,407.3,2197.4,407.3z"/>
		<path class="st60" d="M4221.6,595.8l13.6,37.9c-94.2-56.5-201.2,15.7-207.2-62.8C4045.4,564.5,4221.6,595.8,4221.6,595.8z"/>
		<path class="st61" d="M4809.4,648.2c-19.4,6.6-156.2-27.4-156.2-27.4l61.9-36.1c0,0,16.1,24.1,45.2,38.1
			C4787,635.8,4820.8,644.4,4809.4,648.2z"/>
		<path class="st62" d="M4738.2,639.8c-0.9-1-1.4-2.2-1.4-3.5c-0.1-5.3,9.1-10.1,23.5-13.6c26.7,12.9,60.5,21.5,49.1,25.4
			C4800.9,651.1,4770.2,646.2,4738.2,639.8z"/>
		<path class="st63" d="M4572.4,743.2l-75.7,1.1c0,0,5.7-125.5,48.4-146.2c42.7-20.7,30.4,7.7,26.1,15.9
			C4558.9,637.1,4555.3,687.9,4572.4,743.2z"/>
		<path class="st63" d="M4264,747.7l-75.7,1.1c0,0,36.5-122.6,84.1-142.8s28.4,7.6,22.1,15.5C4276.6,644.1,4260.5,693.7,4264,747.7z
			"/>
		<path class="st63" d="M4741.6,602.5c-50.7,20.6-243.9,69.1-261.1,76c0,0-146.9,19.9-253.2-49.2l-37.9-71.2L4741.6,602.5z"/>
		<path class="st64" d="M4208.7,559.7l27.7,55.7c99.7,69.1,237.6,60.5,257.6,58.8c-6.7,1.9-11.4,3.4-13.4,4.2
			c0,0-142.8,29-264.7-54.4l-33.4-25.3L4208.7,559.7z"/>
		<path class="st61" d="M4396.9,745.8l-75.7,1.1c0,0,17.1-108.7,61.6-126.7s29.7,6.6,24.6,13.7
			C4393.1,654,4384.8,697.9,4396.9,745.8z"/>
		<path class="st62" d="M4321.2,746.9c0,0,7.2-45.8,24.5-82.9c3.3-1.3,6.9-2,10.5-2.1c13.9-0.2,26.6,9.5,35.3,25
			c-1.4,19.8,0.4,39.7,5.4,58.9L4321.2,746.9z"/>
		<path class="st61" d="M4632.6,742.3l77-1.1c0,0-20.6-108.1-66.4-124.8c-45.8-16.7-30,7.5-24.6,14.4
			C4633.7,650.4,4643.5,694.2,4632.6,742.3z"/>
		<path class="st62" d="M4670.8,649.5c2.3,0,4.6,0.3,6.8,1c21.8,37.5,32,90.7,32,90.7l-77,1.1c4.1-18.1,5.5-36.7,4-55.2
			C4643.9,664.6,4656.4,649.7,4670.8,649.5z"/>
		<path class="st65" d="M4275.9,621.5c0,0-15.3,4.6-20.5,6.1c0,0-92.8-53.2-224.8-45.6c-5.5,0.3-9.9-5-9.9-10.7
			c-0.1-15.7-4.9-33.6,4.4-44.2c23.5-27.1,86.4-32.6,114.8-4.1c9.3,9.3,10.2,13.2,26.9,20C4231.8,519.6,4275.9,621.5,4275.9,621.5z"
			/>
		<path class="st61" d="M4151,533.8c4.8,3.8,10.1,6.9,15.8,9.3c65-23.4,109.1,78.4,109.1,78.4s-15.3,4.6-20.5,6.1
			c0,0-65.2-37.4-164-44.9C4120.3,571.1,4142.2,552.8,4151,533.8z"/>
		<path class="st63" d="M4168.6,558.6c-4.5-8.5-9.9-16.4-16.1-23.7c4.4,3.3,9.2,6.1,14.3,8.2c65-23.4,119.4,85,119.4,85
			s-25.6-2.1-30.8-0.6c0,0-27.3-15.6-73.2-28.7C4180,584.8,4175.3,571.2,4168.6,558.6z"/>
		<path class="st66" d="M4765.9,604.2c-6,21.7-381,49.3-461.6,29.5c-84.7-20.8-145.8-100.5-145.8-100.5s6.2-21.6,27.6-5.4
			c0,0,131.9-199.6,188.9-216.3c17.8-5.2,198.6,2,243.8,85.8s106.9,185.5,106.9,185.5S4775.1,571,4765.9,604.2z"/>
		<path class="st67" d="M4166.6,523c17.5,20.3,70.8,76.1,139.7,93c77.3,19,425.2-5.6,459-26.8c2,3.5,4.4,10.8,2.6,17.5
			c-6,21.7-384.6,49.8-465.2,30c-84.7-20.8-144.1-103.4-144.1-103.4S4160.6,525.9,4166.6,523z"/>
		<path class="st68" d="M4377.5,317.5c17.8-5.2,196.1-6.2,241.3,77.6c43.4,80.5,102.3,179.9,106.8,187.3
			c-103.5,17.4-357.1,31.8-422,16c-53.7-13-97.9-49.2-123.5-74.4c2.1,1.1,4.2,2.4,6.1,3.8C4186.1,527.9,4320.4,334.3,4377.5,317.5z"
			/>
		<path class="st69" d="M4504.1,460.5c-89.5,1.3-168.2-27-211.3-70.2c31.6-36,63.5-66.6,84.7-72.8c17.8-5.2,196.1-6.2,241.3,77.6
			c6.7,12.4,13.8,25.3,20.9,38.2C4601.1,449.8,4554.4,459.8,4504.1,460.5z"/>
		<polygon class="st66" points="4497.3,476.9 4570.4,523.8 4570,605 4565.9,605 4564.8,524.8 4497.9,481.6 4428.7,517.6 
			4447.1,606.7 4443.9,608.5 4424.6,515.2 		"/>
		<polygon class="st66" points="4353.3,501.6 4426.2,514.6 4427.1,519.6 4354.2,504.9 4314.1,547.7 4323.2,612.1 4317.5,611.4 
			4309.2,547.8 		"/>
		<polygon class="st66" points="4383.2,393.9 4465.2,394.9 4499.5,478.8 4494.6,481.1 4464.1,399.3 4384.3,396.6 4341.6,445.2 
			4356.1,504 4352.3,504.1 4338.4,445.8 		"/>
		<polygon class="st66" points="4272.8,453.4 4340,444.2 4341.1,448 4273.9,456.2 4249.8,510.6 4261.1,543.5 4311.6,547.2 
			4310.1,552.2 4258.4,546.3 4247.1,511.2 		"/>
		<polygon class="st66" points="4242.7,574.5 4259.5,545.6 4257.8,541.1 4240.8,573.6 		"/>
		<polygon class="st66" points="4246.8,512.3 4216.3,512.7 4186.4,530.1 4186.1,527.9 4215.5,510.2 4248.4,510.2 		"/>
		<polygon class="st66" points="4214.3,487.5 4216.3,512.7 4214.3,512.7 4211.9,490 		"/>
		<polygon class="st66" points="4272.8,454.8 4240.3,452.8 4241.8,450.9 4274,453.5 		"/>
		<polygon class="st66" points="4272.8,454.8 4277.4,406.3 4275,409.2 4270.8,454.8 		"/>
		<polygon class="st66" points="4309,368.6 4356.5,358 4383.2,393.9 4381.9,396.5 4355.3,360.5 4307,370.7 		"/>
		<polygon class="st66" points="4569.1,526.3 4616.5,501.3 4662.5,532.7 4678,590.4 4682.9,589.7 4665.8,533.7 4687.8,518.5 
			4685.6,514.7 4665.2,529.9 4618.1,496.9 4566.4,524.7 		"/>
		<polygon class="st66" points="4464.1,399.3 4490.1,357 4471.6,319.2 4467.8,317.6 4486.9,357 4460.9,397.7 		"/>
		<polygon class="st66" points="4357.7,360 4392.3,311.5 4388.5,311.6 4355,359 		"/>
		<polygon class="st66" points="4619.7,499.1 4612.9,440.2 4634.7,424.9 4633.8,423.4 4610.4,439.7 4616.3,499.6 		"/>
		<polygon class="st66" points="4497.3,478.5 4558.7,419.7 4611.8,441.8 4612.9,439.1 4557.6,415.9 4495.6,475.5 		"/>
		<polygon class="st66" points="4558.8,417.9 4549.9,365.9 4566.8,347.9 4563.9,345.8 4547.5,364.3 4556,420 		"/>
		<polygon class="st66" points="4487.7,357.3 4548.3,367.6 4548.7,363.9 4487.9,355.2 		"/>
		<path class="st70" d="M4102.1,537.4l-27.8-1.1c0,0,1.6,16.8,16,16.3C4095.7,552.5,4102.1,537.4,4102.1,537.4z"/>
		<path class="st70" d="M4082.2,570.2c-1.4-4.5-7.7,14.7-51.9,10.6l-1.6,1.3C4028.6,582.1,4088.1,589,4082.2,570.2z"/>
		<path class="st66" d="M4067.5,536.1c5.1,4.2,33.2,5.6,40,5.2s-1.4-20.7-17.4-21S4062.3,531.8,4067.5,536.1z"/>
		<polygon class="st69" points="4494.6,478.9 4426.2,514.6 4353.3,501.6 4425.5,506.3 		"/>
		<polygon class="st69" points="4310,546.7 4261.1,543.5 4249.8,510.6 4273.9,456.2 4255.2,508.3 4263.6,536.9 		"/>
		<polygon class="st69" points="4338.9,444.2 4273,453.4 4277.6,407.5 4276.6,448.9 		"/>
		<polygon class="st69" points="4564.8,524.8 4566,598.6 4448,604.9 4439.4,570.3 4451.2,600.7 4561,594.2 		"/>
		<polygon class="st69" points="4662.5,532.7 4678.2,589.1 4570,598.6 4570.6,551.4 4575.3,594.4 4671.6,584.7 		"/>
		<path class="st69" d="M4432.7,554.2l10.5,50.8c0,0-105.8,3.6-121.3-4l-7.7-53.3l10.5,49.5l114.8,4.1L4432.7,554.2z"/>
		<path class="st71" d="M3413.3,716.2h-7c1,7,1,18.7,7.2,18.1C3419.8,733.8,3413.3,716.2,3413.3,716.2z"/>
		<path class="st71" d="M3275.5,685.8c-8.3,2.7-22-5.8-0.1-12.1c10-2.9,12.2,13.5,31.8,24.2c3.5,1.9-1.9,10-1.9,10L3275.5,685.8z"/>
		<path class="st71" d="M3183.8,664.6l-13-22.3c0,0-30.3,54-32.7,85.2c0,0.5-0.1,1.1-0.1,1.6l21.9-11c0,0,0.1-1,0.2-1.5
			C3162.1,704.8,3167.8,686.2,3183.8,664.6z"/>
		<path class="st71" d="M3407.6,669.1l-22.3-11.9c0,0,5.5,49.2,22.2,66.1l12.8-3.7C3420.3,719.5,3403.5,701.1,3407.6,669.1z"/>
		<path class="st72" d="M3597.7,674.6c2.6-21.4-24.1-16-24.1-16s29.3-71.5-117.1-138.1c-17.8-8.1-14.9,66.2-14.9,66.2
			s-14.9-152.2-159.3-154.1c-144.4-1.9-296.6,228.3-243.4,338.1c53.2,109.8,255.7,193.7,339.6,82.8c14.1-17.8,29.5-57.5,2.5-79.3
			c-38.6-31.2-106.2,19.5-90.3,60.8c15.9,41.3,44.7,24.9,54.7,11.9c22.1-28.9,0.2-49.3-10.9-49.9c-11.1-0.7-17.6,14.9-11.9,20.5
			s3.3,16.5-2.8,19.3c-6.1,2.8-17.9-0.6-11-23.3s39.8-30.9,58.3-15.6c41.5,34.4-106.5,165.4-247,19.1
			c-65.1-67.9-14.3-145.8,35.3-144.9c34,0.7,156.2-21.8,208.8-8.8s88.9,51.5,154.5,37S3596.2,687.1,3597.7,674.6z"/>
		<path class="st73" d="M3375.6,842c-84,110.9-277.4,22.4-330.6-87.4c-2.1-4.3-12.8-4.3-14.3-9c1.7,8.7,4.5,17.2,8.3,25.2
			c53.2,109.8,255.7,193.7,339.6,82.8c11.3-14.2,23.2-42.2,14.1-64C3394.8,808.9,3385,830.2,3375.6,842z"/>
		<path class="st73" d="M3438.7,575.2c0,0-0.1-2.3-0.1-6c-0.8-3.6-1.8-7.6-3-12C3436.9,563.1,3438,569.1,3438.7,575.2z"/>
		<path class="st73" d="M3575.9,646.5c0.4-8.9-0.9-17.9-3.8-26.3c2.8,16.5-1.4,26.9-1.4,26.9
			C3572.4,646.7,3574.1,646.5,3575.9,646.5z"/>
		<path class="st73" d="M3321.2,807.8c-1.1,3.6-0.8,7.4,1.4,9.6C3323.4,814.1,3322.9,810.7,3321.2,807.8z"/>
		<path class="st73" d="M3597.7,674.6c0.7-5.6-0.6-9.3-2.9-11.8c0,0.1,0,0.1,0,0.2c5,17.7-10.1,18.2-75.7,32.7s-105-30.9-157.6-43.9
			c-52.6-13-175.4,7.3-209.5,6.6c-24.1-0.5-54.5-7.5-66,19.7c-14.4,33.9-2,64,4.9,85c-9.1-49.4,29.4-88.6,65.9-87.9
			c34,0.6,154.3-21.7,207-8.7c52.7,13,89.6,48.3,155.1,33.8S3596.2,687.1,3597.7,674.6z"/>
		<path class="st73" d="M3371.4,802.7c0.4-6.2-2.2-12.3-7.1-16.2c-18.5-15.3-51.3-7.1-58.3,15.6c-3.6,11.8-2.1,18.3,0.9,21.5
			c0.3-3.4,1-6.7,2-9.9c1.6-5.2,4.6-9.8,8.7-13.5c0-6.7,5.7-15.2,14-14.7c3.1,0.2,7,1.9,10.5,4.8c9-0.5,18,1.9,25.1,7.8
			C3368.9,799.3,3370.3,800.9,3371.4,802.7z"/>
		<path class="st73" d="M3351,838.2c5.6-11.2,4.7-20.7,1-27.8c0.2,7.2-2.3,15.6-9.5,24.9c-9.8,12.8-37.9,28.9-54-10
			c0.3,3.3,1,6.6,2.2,9.7c6.7,17.5,15.8,24.6,24.8,26C3328.5,855.5,3340.5,847.7,3351,838.2z"/>
		<path class="st74" d="M3518.5,611.1c-0.3-19.3-13.5-34.5-29.6-33.9c-16.1,0.6-28.8,16.7-28.5,36s13.5,34.5,29.6,33.9
			C3506,646.5,3518.8,630.4,3518.5,611.1z"/>
		<path class="st75" d="M3313.8,475.3c86.2,24.6,96.2,38.8,115.5,63.2c-17.1-44.8-55.3-109.5-145.6-110.7
			c-144.3-2-298,233.1-244.8,342.9c53.2,109.8,255.7,193.7,339.6,82.8c14.1-17.8,29.5-57.5,2.5-79.3c-4.2-3.4-9-6-14.2-7.6
			c-10.6,9.8-0.9,15.2,7.9,24.1c48.4,49.6-122.2,184.6-277.3,35.7C2980.4,714.2,3131.2,423.1,3313.8,475.3z"/>
		<path class="st75" d="M3542.8,666.6c9.5-4.5,23.7-5.8,40.5-4.4c4.2,0.4,8.3,0.9,12.4,1.7c-6-8.6-22.1-5.3-22.1-5.3
			s27.1-66.1-101.1-130.4C3505.3,546.8,3573.4,637,3542.8,666.6z"/>
		<path class="st76" d="M3098,700.3c10.6-18.4,28.5-28.1,46.5-31.3c-0.6-25-34.3-34.6-50.7-19.8
			C3078.9,662.7,3083.9,685.2,3098,700.3z"/>
		<path class="st73" d="M3142.1,657.9c-7,5.8-17.2,11.3-29,15.2c-8.9,3-18.1,4.7-27.4,5c1.5,10.4,7.3,21.3,14.8,29.3
			c10.6-18.4,27.8-31.4,45.8-34.5C3146.8,667.6,3145.3,662.2,3142.1,657.9z"/>
		<path class="st76" d="M3366.5,613.5c-20.8-6.8-42.3,3.9-48.1,23.9c-1.4,5.1-1.8,10.5-1,15.7c18.4,0.6,35,2.3,47.7,6
			c8.9,2.6,17.6,5.9,26,9.7c1.1-2.1,2-4.4,2.7-6.7C3399.6,642,3387.4,620.3,3366.5,613.5z"/>
		<path class="st73" d="M3345.3,645.7c-14.2-4-13.6-11.9-20-21.2c-6.4,7.7-11.8,19.8-10.1,30.5c18.4,0.6,36.7,2,49.3,5.7
			c9.1,2.6,29.2,9,37.6,12.7c-6.1-9.1-5.9-20.2-7.4-28.4C3384.4,649.2,3359,649.6,3345.3,645.7z"/>
		<path class="st75" d="M3517.7,605.9c-0.7-18.5-13.4-33-28.5-32.5c-15.1,0.5-26.7,16-26,34.5c0.7,18.5,13.4,33,28.5,32.5
			C3506.7,639.8,3518.4,624.3,3517.7,605.9z"/>
		<path class="st77" d="M3517.7,605.9c-0.2-5.3-1.4-10.5-3.6-15.3c-3.3,13-13,22.5-24.8,23c-10.5,0.4-19.9-6.6-24.9-17.2
			c-1,3.8-1.4,7.6-1.3,11.5c0.7,18.5,13.4,33,28.5,32.5C3506.7,639.9,3518.4,624.3,3517.7,605.9z"/>
		<path class="st78" d="M3506.9,607.8c-0.4-11.5-8.4-20.6-17.7-20.2c-9.4,0.3-16.6,10-16.2,21.5s8.4,20.6,17.7,20.2
			C3500.1,628.9,3507.4,619.3,3506.9,607.8z"/>
		<path class="st77" d="M3488.9,588.6c9.1-0.3,16.8,7.8,18.3,18.5v-0.2c-0.4-12-8.7-21.4-18.5-21c-9.8,0.4-17.3,10.4-16.9,22.4
			c0,0.9,0.1,1.7,0.2,2.5C3471.7,598.9,3479.2,589,3488.9,588.6z"/>
		<path class="st77" d="M3491.1,620.6c-6.3,0.6-12.1-4.8-13.5-12.3c0,0,0,0.1,0,0.1c0.8,8.4,6.9,14.7,13.7,14
			c6.8-0.7,11.7-7.9,10.9-16.3c-0.1-0.6-0.1-1.2-0.3-1.8C3502.8,612.8,3497.9,620,3491.1,620.6z"/>
		<path class="st74" d="M3495.5,606.7c-0.3-3.4-3.2-5.9-6.6-5.6c-3.4,0.3-5.9,3.2-5.6,6.6c0.3,3.2,3,5.7,6.3,5.6
			C3493.1,613.1,3495.7,610.1,3495.5,606.7L3495.5,606.7z"/>
		<path class="st74" d="M3453.9,663.7c0,0-24.3-52.2-16.6-100.3l5,17.5C3442.3,580.9,3440.9,636.9,3453.9,663.7z"/>
		<path class="st76" d="M3364.9,645.2c7.1-1.8,21.6-18.1,6.9-22.3c-14.7-4.1-48-6.6-72.2-25.8c-24.2-19.3-30.8,9.2-14.7,21.6
			C3301,631.1,3339.7,651.6,3364.9,645.2z"/>
		<path class="st79" d="M3366.8,642.2c-25.2,6.4-63.9-20-80-32.4c-4.9-3.7-8.1-9.3-8.8-15.5c-3.9,6-1.9,17.6,6.9,24.3
			c16.1,12.4,57.7,36.1,82.8,29.7C3373.2,647,3370,641.4,3366.8,642.2z"/>
		<path class="st76" d="M3303.6,705.3c-7.8-18.3-41.5-101.4-23.5-113.4c18-12,28.5,101.2,39.6,117L3303.6,705.3z"/>
		<path class="st79" d="M3303.5,644.5c-0.8,12.1-3.8,20.3-8.4,20.9c-3,0.4-6.3-2.5-9.4-7.8c6.7,20.6,14.6,40,17.9,47.7l16.1,3.6
			C3314.5,701.5,3309.3,672.1,3303.5,644.5z"/>
		<path class="st79" d="M3223.9,738.7c5.1,1.5,7.4-10.5,2.3-21.1c-2.8-5.7-9.6-10.9-14.9-13.6c-15.3-7.7-14.3,2.9-14.3,2.9
			s11.3,5.2,17.3,13.3C3219.6,727.3,3219.3,737.4,3223.9,738.7z"/>
		<path class="st79" d="M3316.9,744.9c4.2,3.3,10.8-7.1,9.9-18.8c-0.5-6.3-4.9-13.6-8.9-18.1c-11.4-12.8-14.4-2.6-14.4-2.6
			s8.6,9,11.2,18.8C3317,732.7,3313,741.9,3316.9,744.9z"/>
		<path class="st79" d="M3246.3,705.3c-9.8-13.2-36.1-8.8-44.6-7l4.7,7.9c0,0,18.8-6.6,29.5,5.9
			C3245.9,723.8,3256.2,718.5,3246.3,705.3z"/>
		<path class="st79" d="M3348.4,725.5c-2.4-16.3-27.6-25-36-27.4l0.4,9.2c0,0,19.7,3.1,23.2,19.2
			C3339.3,741.5,3350.8,741.8,3348.4,725.5z"/>
		<path class="st71" d="M3437.3,720.3c-2.5-12.3-22.4-12.3-30.6-11.7l3.4,9.5c0,0,16-4.6,20.3,7.1
			C3433.5,733.8,3439.3,730.1,3437.3,720.3z"/>
		<path class="st71" d="M3392.4,730c-3-12.2,12.4-19.4,19.1-21.9l1.2,9.9c0,0-14.3,1.6-12.9,13.9
			C3400.9,741,3394.9,739.8,3392.4,730z"/>
		<path class="st76" d="M3095,674.1c30.2,6.4,62.6-50.3,82.6-46.9c7.4,1.3,18.9-24.5,9.7-27.5c-9.1-3-60,21.2-86.6,47.4
			C3085.3,662.4,3087.3,672.5,3095,674.1z"/>
		<path class="st79" d="M3190.5,603.5c-2.5,6.3-6.8,11.8-10.2,11.2c-19.9-3.4-50.8,64.2-81,57.8c-3.9-0.8-19.6,5.6-12,5.6
			c68.5-0.5,71.1-53.8,91-50.4C3184.3,628.7,3192.5,611.6,3190.5,603.5z"/>
		<path class="st76" d="M3187.4,599.7c-9.4-4.7-27,22.8-14.7,27.7c12.3,5,16.3,52.5,18.7,82.4l18.5-5.6
			C3208.5,674.6,3196.8,604.4,3187.4,599.7z"/>
		<path class="st79" d="M3198.6,628.4c0,21.4-4.4,39-10.8,44.9c1.6,12.6,2.7,25.8,3.5,36.6l18.5-5.6
			C3209,686.1,3204.3,652.6,3198.6,628.4z"/>
		<path class="st79" d="M3189.5,749.3c-4.1,3.8-11.8-5.8-11.9-17.6c-0.1-6.4,3.8-14.2,7.5-19.2c10.6-14.2,14.6-4.3,14.6-4.3
			s-8.1,10-9.9,20.1C3188.2,737.2,3193.2,745.9,3189.5,749.3z"/>
		<path class="st80" d="M3513.4,687.5l-1.9-3.9c4.5-8.3,34-23,62.8-27.1l0.5,2C3544.7,662.7,3529.5,669.9,3513.4,687.5z"/>
		<path class="st74" d="M3569,635.9c-5.2,5.6-7.8-21-5.2-22.9C3563.8,613,3575.3,629,3569,635.9z"/>
		<path class="st72" d="M3165,479.7c43-30.6,103.4-58.2,157.3-44.3c56.8,14.7,85.1,64.3,85.1,64.3
			C3331.7,426.7,3261.5,425.6,3165,479.7z"/>
		<g class="st81">
			<path class="st7" d="M3374.8,575.4c-0.4,1.6,0.5,3.3,2.1,3.7c1.6,0.4,3.3-0.5,3.7-2.1c0.4-1.6-0.5-3.2-2.1-3.7
				C3377,572.9,3375.3,573.8,3374.8,575.4C3374.8,575.4,3374.8,575.4,3374.8,575.4z"/>
			<path class="st7" d="M3313.1,589.5c-0.4,1.6,0.5,3.3,2.1,3.7c1.6,0.4,3.3-0.5,3.7-2.1c0.4-1.6-0.5-3.2-2.1-3.7
				C3315.3,587,3313.6,587.9,3313.1,589.5C3313.1,589.5,3313.1,589.5,3313.1,589.5z"/>
			<path class="st7" d="M3404.7,552.2c-0.4,1.6,0.5,3.3,2.1,3.7c1.6,0.4,3.3-0.5,3.7-2.1c0.4-1.6-0.5-3.2-2.1-3.7
				C3406.8,549.6,3405.2,550.6,3404.7,552.2C3404.7,552.2,3404.7,552.2,3404.7,552.2z"/>
			<path class="st7" d="M3416.1,648.6c-0.5,1.6,0.5,3.3,2.1,3.7c1.6,0.5,3.3-0.5,3.7-2.1c0.5-1.6-0.5-3.2-2.1-3.7
				C3418.2,646.1,3416.5,647,3416.1,648.6C3416.1,648.6,3416.1,648.6,3416.1,648.6z"/>
			<path class="st7" d="M3509.9,568.8c-0.4,1.6,0.5,3.3,2.1,3.7c1.6,0.4,3.3-0.5,3.7-2.1c0.4-1.6-0.5-3.2-2.1-3.7
				C3512.1,566.3,3510.4,567.2,3509.9,568.8C3509.9,568.8,3509.9,568.8,3509.9,568.8z"/>
			<path class="st7" d="M3536.4,619.3c-0.4,1.6,0.5,3.3,2.1,3.7c1.6,0.4,3.3-0.5,3.7-2.1c0.4-1.6-0.5-3.2-2.1-3.7
				C3538.5,616.7,3536.9,617.7,3536.4,619.3C3536.4,619.3,3536.4,619.3,3536.4,619.3z"/>
			<path class="st7" d="M3556.8,672.7c-0.4,1.6,0.5,3.3,2.1,3.7c1.6,0.4,3.3-0.5,3.7-2.1c0.4-1.6-0.5-3.2-2-3.7
				C3558.9,670.1,3557.2,671,3556.8,672.7C3556.8,672.6,3556.8,672.7,3556.8,672.7z"/>
			<path class="st7" d="M3345.6,596.3c-0.4,1.6,0.5,3.3,2.1,3.7c1.6,0.4,3.3-0.5,3.7-2.1c0.4-1.6-0.5-3.2-2.1-3.7
				C3347.8,593.8,3346.1,594.7,3345.6,596.3C3345.6,596.3,3345.6,596.3,3345.6,596.3z"/>
			<path class="st7" d="M3461.8,559.1c-0.5,1.6,0.5,3.3,2.1,3.7c1.6,0.5,3.3-0.5,3.7-2.1c0.4-1.6-0.5-3.2-2.1-3.7
				C3463.9,556.5,3462.2,557.5,3461.8,559.1C3461.8,559.1,3461.8,559.1,3461.8,559.1z"/>
			<path class="st7" d="M3415.5,606.9c-0.4,1.6,0.5,3.3,2.1,3.7c1.6,0.4,3.3-0.5,3.7-2.1c0.4-1.6-0.5-3.2-2.1-3.7
				C3417.6,604.3,3415.9,605.3,3415.5,606.9C3415.5,606.9,3415.5,606.9,3415.5,606.9z"/>
			<path class="st7" d="M3507.8,651.3c-0.4,1.6,0.5,3.3,2.1,3.7c1.6,0.4,3.3-0.5,3.7-2.1c0.4-1.6-0.5-3.2-2.1-3.7
				C3510,648.8,3508.3,649.7,3507.8,651.3C3507.8,651.3,3507.8,651.3,3507.8,651.3z"/>
			<path class="st7" d="M3467.8,662.3c-0.4,1.6,0.5,3.3,2.1,3.7c1.6,0.4,3.3-0.5,3.7-2.1c0.4-1.6-0.5-3.2-2-3.7
				C3470,659.7,3468.3,660.6,3467.8,662.3C3467.8,662.2,3467.8,662.3,3467.8,662.3z"/>
			<path class="st7" d="M3431.9,680c-0.4,1.6,0.5,3.3,2.1,3.7c1.6,0.4,3.3-0.5,3.7-2.1c0.4-1.6-0.5-3.2-2.1-3.7
				C3434.1,677.4,3432.4,678.3,3431.9,680C3431.9,679.9,3431.9,680,3431.9,680z"/>
			<path class="st7" d="M3446.2,613.6c-0.5,1.6,0.5,3.3,2.1,3.7c1.6,0.5,3.3-0.5,3.7-2.1c0.4-1.6-0.5-3.2-2.1-3.7
				C3448.3,611.1,3446.6,612,3446.2,613.6C3446.2,613.6,3446.2,613.6,3446.2,613.6z"/>
			<path class="st7" d="M3488.5,681.3c-0.5,1.6,0.5,3.3,2.1,3.7c1.6,0.5,3.3-0.5,3.7-2.1s-0.5-3.3-2.1-3.7
				C3490.7,678.8,3489,679.7,3488.5,681.3C3488.5,681.3,3488.5,681.3,3488.5,681.3z"/>
			<path class="st7" d="M3297.7,508.9c-0.5,1.6,0.5,3.3,2.1,3.7c1.6,0.5,3.3-0.5,3.7-2.1c0.5-1.6-0.5-3.2-2.1-3.7
				C3299.8,506.4,3298.2,507.3,3297.7,508.9C3297.7,508.9,3297.7,508.9,3297.7,508.9z"/>
			<path class="st7" d="M3245.3,497.5c-0.4,1.6,0.5,3.3,2.1,3.7c1.6,0.4,3.3-0.5,3.7-2.1c0.4-1.6-0.5-3.2-2.1-3.7
				C3247.4,495,3245.8,495.9,3245.3,497.5C3245.3,497.5,3245.3,497.5,3245.3,497.5z"/>
			<path class="st7" d="M3297.1,467.2c-0.5,1.6,0.5,3.3,2.1,3.7c1.6,0.5,3.3-0.5,3.7-2.1c0.4-1.6-0.5-3.2-2.1-3.7
				C3299.2,464.6,3297.6,465.6,3297.1,467.2C3297.1,467.1,3297.1,467.1,3297.1,467.2z"/>
			<path class="st7" d="M3258.8,459.8c-0.5,1.6,0.5,3.3,2.1,3.7c1.6,0.5,3.3-0.5,3.7-2.1c0.4-1.6-0.5-3.2-2.1-3.7
				C3261,457.2,3259.3,458.2,3258.8,459.8C3258.8,459.7,3258.8,459.7,3258.8,459.8z"/>
			<path class="st7" d="M3389.5,511.6c-0.5,1.6,0.5,3.3,2.1,3.7c1.6,0.5,3.3-0.5,3.7-2.1c0.4-1.6-0.5-3.2-2.1-3.7
				C3391.6,509.1,3389.9,510,3389.5,511.6C3389.5,511.6,3389.5,511.6,3389.5,511.6z"/>
			<path class="st7" d="M3349.5,522.5c-0.5,1.6,0.5,3.3,2,3.7c0,0,0,0,0,0c1.6,0.4,3.2-0.5,3.7-2.1c0.4-1.6-0.5-3.2-2.1-3.7
				C3351.6,520.1,3349.9,521,3349.5,522.5z"/>
			<path class="st7" d="M3363.9,476.8c-0.5,1.6,0.5,3.3,2.1,3.7c1.6,0.5,3.3-0.5,3.7-2.1c0.4-1.6-0.5-3.2-2.1-3.7
				C3366,474.3,3364.3,475.2,3363.9,476.8C3363.9,476.8,3363.9,476.8,3363.9,476.8z"/>
			<path class="st7" d="M3313.6,540.2c-0.5,1.6,0.5,3.3,2.1,3.7c1.6,0.5,3.3-0.5,3.7-2.1c0.4-1.6-0.5-3.2-2.1-3.7
				C3315.7,537.7,3314,538.6,3313.6,540.2C3313.6,540.2,3313.6,540.2,3313.6,540.2z"/>
			<path class="st7" d="M3269.2,565.1c-0.4,1.6,0.5,3.3,2.1,3.7c1.6,0.4,3.3-0.5,3.7-2.1c0.4-1.6-0.5-3.2-2.1-3.7
				C3271.3,562.6,3269.6,563.5,3269.2,565.1C3269.2,565.1,3269.2,565.1,3269.2,565.1z"/>
			<path class="st7" d="M3327.8,473.9c-0.4,1.6,0.5,3.3,2.1,3.7c1.6,0.4,3.3-0.5,3.7-2.1c0.4-1.6-0.5-3.2-2-3.7
				C3329.9,471.4,3328.2,472.3,3327.8,473.9C3327.8,473.9,3327.8,473.9,3327.8,473.9z"/>
			<path class="st7" d="M3261.1,531.3c-0.5,1.6,0.5,3.3,2.1,3.7c1.6,0.5,3.3-0.5,3.7-2.1c0.4-1.6-0.5-3.2-2.1-3.7
				C3263.3,528.8,3261.6,529.7,3261.1,531.3C3261.1,531.3,3261.1,531.3,3261.1,531.3z"/>
			<path class="st7" d="M3357.1,554.7c-0.5,1.6,0.5,3.3,2.1,3.7c1.6,0.5,3.3-0.5,3.7-2.1c0.4-1.6-0.5-3.2-2-3.7
				C3359.2,552.1,3357.5,553,3357.1,554.7C3357.1,554.6,3357.1,554.7,3357.1,554.7z"/>
			<path class="st7" d="M3218.6,638.1c-0.4,1.6,0.5,3.3,2.1,3.7c1.6,0.4,3.3-0.5,3.7-2.1c0.4-1.6-0.5-3.2-2.1-3.7
				C3220.7,635.6,3219.1,636.5,3218.6,638.1C3218.6,638.1,3218.6,638.1,3218.6,638.1z"/>
			<path class="st7" d="M3258.2,602.9c-0.5,1.6,0.5,3.3,2.1,3.7c1.6,0.5,3.3-0.5,3.7-2.1s-0.5-3.3-2.1-3.7
				C3260.3,600.4,3258.6,601.3,3258.2,602.9C3258.2,602.9,3258.2,602.9,3258.2,602.9z"/>
			<path class="st7" d="M3260.1,633.6c-0.4,1.6,0.5,3.3,2.1,3.7c1.6,0.4,3.3-0.5,3.7-2.1c0.4-1.6-0.5-3.2-2.1-3.7
				C3262.2,631.1,3260.6,632,3260.1,633.6C3260.1,633.6,3260.1,633.6,3260.1,633.6z"/>
			<path class="st7" d="M3242.9,562.3c-0.4,1.6,0.5,3.2,2.1,3.7c1.6,0.4,3.3-0.5,3.7-2.1c0.4-1.6-0.5-3.2-2.1-3.7
				C3245,559.8,3243.4,560.7,3242.9,562.3C3242.9,562.3,3242.9,562.3,3242.9,562.3z"/>
			<path class="st7" d="M3202.9,573.3c-0.5,1.6,0.5,3.3,2.1,3.7s3.3-0.5,3.7-2.1s-0.5-3.3-2.1-3.7S3203.4,571.7,3202.9,573.3z"/>
			<path class="st7" d="M3210.4,493c-0.4,1.6,0.5,3.2,2.1,3.7c1.6,0.4,3.3-0.5,3.7-2.1c0.4-1.6-0.5-3.2-2.1-3.7
				C3212.6,490.4,3210.9,491.4,3210.4,493C3210.4,493,3210.4,493,3210.4,493z"/>
			<path class="st7" d="M3217.3,527.5c-0.5,1.6,0.5,3.3,2.1,3.7c1.6,0.5,3.3-0.5,3.7-2.1c0.5-1.6-0.5-3.3-2.1-3.7
				C3219.4,525,3217.8,525.9,3217.3,527.5C3217.3,527.5,3217.3,527.5,3217.3,527.5z"/>
			<path class="st7" d="M3167,492.3c-0.5,1.6,0.5,3.3,2.1,3.7c1.6,0.5,3.3-0.5,3.7-2.1c0.4-1.6-0.5-3.2-2.1-3.7
				C3169.1,489.8,3167.4,490.7,3167,492.3C3167,492.3,3167,492.3,3167,492.3z"/>
			<path class="st7" d="M3168.5,592.7c-0.5,1.6,0.5,3.3,2.1,3.7c1.6,0.5,3.3-0.5,3.7-2.1c0.4-1.6-0.5-3.2-2.1-3.7
				C3170.6,590.2,3169,591.1,3168.5,592.7C3168.5,592.7,3168.5,592.7,3168.5,592.7z"/>
			<path class="st7" d="M3132.1,607.6c-0.5,1.6,0.5,3.3,2.1,3.7c1.6,0.5,3.3-0.5,3.7-2.1c0.5-1.6-0.5-3.2-2.1-3.7
				C3134.2,605,3132.6,606,3132.1,607.6C3132.1,607.6,3132.1,607.6,3132.1,607.6z"/>
			<path class="st7" d="M3093.1,621.9c-0.4,1.6,0.5,3.2,2.1,3.7c1.6,0.4,3.2-0.5,3.7-2.1c0.4-1.6-0.5-3.2-2.1-3.7
				C3095.3,619.4,3093.6,620.3,3093.1,621.9C3093.1,621.9,3093.1,621.9,3093.1,621.9z"/>
			<path class="st7" d="M3063.5,681.2c-0.5,1.6,0.5,3.3,2.1,3.7c1.6,0.5,3.3-0.5,3.7-2.1s-0.5-3.3-2.1-3.7
				C3065.6,678.7,3064,679.6,3063.5,681.2C3063.5,681.2,3063.5,681.2,3063.5,681.2z"/>
			<path class="st7" d="M3073.3,712.7c-0.5,1.6,0.5,3.3,2.1,3.7c1.6,0.5,3.3-0.5,3.7-2.1c0.5-1.6-0.5-3.2-2.1-3.7
				C3075.4,710.1,3073.7,711.1,3073.3,712.7C3073.3,712.7,3073.3,712.7,3073.3,712.7z"/>
			<path class="st7" d="M3069.4,795.1c-0.4,1.6,0.5,3.3,2.1,3.7c1.6,0.4,3.3-0.5,3.7-2.1c0.4-1.6-0.5-3.2-2.1-3.7
				C3071.5,792.6,3069.9,793.5,3069.4,795.1C3069.4,795.1,3069.4,795.1,3069.4,795.1z"/>
			<path class="st7" d="M3114.3,827.1c-0.4,1.6,0.5,3.3,2.1,3.7c1.6,0.4,3.3-0.5,3.7-2.1c0.4-1.6-0.5-3.2-2-3.7
				C3116.5,824.6,3114.8,825.5,3114.3,827.1C3114.4,827.1,3114.3,827.1,3114.3,827.1z"/>
			<path class="st7" d="M3050.5,762.9c-0.4,1.6,0.5,3.3,2.1,3.7c1.6,0.4,3.3-0.5,3.7-2.1c0.4-1.6-0.5-3.2-2.1-3.7
				C3052.6,760.3,3050.9,761.2,3050.5,762.9C3050.5,762.8,3050.5,762.9,3050.5,762.9z"/>
			<path class="st7" d="M3127.4,855.2c-0.4,1.6,0.5,3.3,2.1,3.7c1.6,0.4,3.3-0.5,3.7-2.1c0.4-1.6-0.5-3.2-2.1-3.7
				C3129.5,852.7,3127.8,853.6,3127.4,855.2C3127.4,855.2,3127.4,855.2,3127.4,855.2z"/>
			<path class="st7" d="M3172.3,871.4c-0.4,1.6,0.5,3.3,2.1,3.7c1.6,0.4,3.3-0.5,3.7-2.1c0.4-1.6-0.5-3.2-2-3.7
				C3174.5,868.9,3172.8,869.8,3172.3,871.4C3172.4,871.4,3172.3,871.4,3172.3,871.4z"/>
			<path class="st7" d="M3218.6,894c-0.4,1.6,0.5,3.3,2.1,3.7c1.6,0.4,3.3-0.5,3.7-2.1c0.4-1.6-0.5-3.2-2.1-3.7
				C3220.8,891.5,3219.1,892.4,3218.6,894C3218.6,894,3218.6,894,3218.6,894z"/>
			<path class="st7" d="M3259.8,892.3c-0.4,1.6,0.5,3.3,2.1,3.7c1.6,0.5,3.3-0.5,3.7-2.1c0.4-1.6-0.5-3.2-2.1-3.7
				C3261.9,889.8,3260.2,890.7,3259.8,892.3C3259.8,892.3,3259.8,892.3,3259.8,892.3z"/>
			<path class="st7" d="M3305.4,896.4c0,1.2,1.6,2.2,3.5,2.2s3.4-1,3.4-2.3s-1.6-2.2-3.5-2.2S3305.3,895.2,3305.4,896.4z"/>
			<path class="st7" d="M3332.8,872.5c0.4,1,1.9,1.2,3.4,0.7c1.5-0.6,2.5-1.8,2.1-2.8c-0.4-0.9-1.9-1.3-3.4-0.7
				C3333.3,870.4,3332.4,871.6,3332.8,872.5z"/>
			<path class="st7" d="M3374.7,844.7c-0.7,1.5-0.4,3.1,0.7,3.6c1.1,0.5,2.5-0.3,3.2-1.8c0.7-1.5,0.4-3.1-0.7-3.6
				S3375.4,843.2,3374.7,844.7z"/>
			<path class="st7" d="M3361.6,864.9c-1,1.3-1.4,2.7-1,3s1.6-0.5,2.6-1.8c1-1.3,1.4-2.7,0.9-3S3362.6,863.6,3361.6,864.9z"/>
			<path class="st7" d="M3376.9,819.9c-0.2,1.6,0.2,3,1,3.1s1.6-1.1,1.8-2.7c0.2-1.6-0.2-3-1-3.1S3377.1,818.2,3376.9,819.9z"/>
			<path class="st7" d="M3298.9,838.8c0.3,1.6,1.5,2.7,2.7,2.5s1.9-1.7,1.5-3.3s-1.5-2.7-2.7-2.5S3298.6,837.2,3298.9,838.8z"/>
			<path class="st7" d="M3303.3,800.4c-0.7,1.5-0.5,3.1,0.6,3.6s2.5-0.2,3.2-1.7c0.7-1.5,0.4-3.1-0.6-3.6S3304,798.9,3303.3,800.4z"
				/>
			<path class="st7" d="M3333.6,846.4c-0.7,1.5-0.4,3.1,0.7,3.6s2.5-0.3,3.2-1.8s0.4-3.1-0.7-3.6S3334.3,844.9,3333.6,846.4z"/>
			<path class="st7" d="M3328.1,811.6c-0.7,1.5-0.4,3.1,0.7,3.6s2.5-0.3,3.2-1.8s0.4-3.1-0.7-3.6S3328.8,810.1,3328.1,811.6z"/>
			<path class="st7" d="M3346.3,767.6c-1.6,0.4-2.7,1.6-2.4,2.8s1.8,1.8,3.4,1.4s2.7-1.6,2.4-2.8
				C3349.4,767.8,3347.9,767.2,3346.3,767.6z"/>
			<path class="st7" d="M3371.5,789c-1.3-1-3-1-3.7,0s-0.2,2.5,1.2,3.5c1.3,1,3,1,3.7,0C3373.3,791.5,3372.8,790,3371.5,789z"/>
			<path class="st7" d="M3391.2,799.8c-0.2-1.6-1.4-2.8-2.5-2.6c-1.2,0.2-1.9,1.6-1.7,3.3c0.2,1.6,1.4,2.8,2.5,2.6
				S3391.4,801.4,3391.2,799.8z"/>
			<path class="st7" d="M3346.8,818.4c0.6,1.5,2.1,2.3,3.1,1.9s1.5-2.1,0.8-3.6c-0.7-1.5-2.1-2.3-3.1-1.9S3346.1,816.9,3346.8,818.4
				z"/>
			<path class="st7" d="M3076.5,766.9c-0.5,1.6,0.5,3.3,2.1,3.7c1.6,0.5,3.3-0.5,3.7-2.1c0.5-1.6-0.5-3.2-2.1-3.7
				C3078.7,764.4,3077,765.3,3076.5,766.9C3076.5,766.9,3076.5,766.9,3076.5,766.9z"/>
			<path class="st7" d="M3043.4,732c-0.4,1.6,0.5,3.3,2.1,3.7c1.6,0.4,3.3-0.5,3.7-2.1c0.4-1.6-0.5-3.2-2.1-3.7
				C3045.5,729.5,3043.9,730.4,3043.4,732C3043.4,732,3043.4,732,3043.4,732z"/>
			<path class="st7" d="M3057.4,650.8c-0.4,1.6,0.5,3.3,2.1,3.7c1.6,0.4,3.3-0.5,3.7-2.1c0.4-1.6-0.5-3.2-2.1-3.7
				C3059.5,648.3,3057.9,649.2,3057.4,650.8C3057.4,650.8,3057.4,650.8,3057.4,650.8z"/>
			<path class="st7" d="M3159.3,554.5c-0.5,1.6,0.5,3.3,2.1,3.7c1.6,0.5,3.3-0.5,3.7-2.1s-0.5-3.3-2.1-3.7
				C3161.4,552,3159.8,552.9,3159.3,554.5C3159.3,554.5,3159.3,554.5,3159.3,554.5z"/>
			<path class="st7" d="M3115.3,572.4c-0.4,1.6,0.5,3.3,2.1,3.7c1.6,0.4,3.3-0.5,3.7-2.1c0.4-1.6-0.5-3.2-2.1-3.7
				C3117.4,569.9,3115.8,570.8,3115.3,572.4C3115.3,572.4,3115.3,572.4,3115.3,572.4z"/>
			<path class="st7" d="M3085.5,589.8c-0.5,1.6,0.5,3.3,2.1,3.7c1.6,0.5,3.3-0.5,3.7-2.1c0.5-1.6-0.5-3.2-2.1-3.7
				C3087.7,587.3,3086,588.2,3085.5,589.8C3085.5,589.8,3085.5,589.8,3085.5,589.8z"/>
			<path class="st7" d="M3181.3,524.6c-0.4,1.6,0.5,3.3,2.1,3.7c1.6,0.4,3.3-0.5,3.7-2.1c0.4-1.6-0.5-3.2-2.1-3.7
				C3183.4,522.1,3181.7,523,3181.3,524.6C3181.3,524.6,3181.3,524.6,3181.3,524.6z"/>
			<path class="st7" d="M3134.5,528.7c-0.4,1.6,0.5,3.2,2.1,3.7c1.6,0.4,3.3-0.5,3.7-2.1c0.4-1.6-0.5-3.2-2.1-3.7
				C3136.6,526.2,3135,527.1,3134.5,528.7C3134.5,528.7,3134.5,528.7,3134.5,528.7z"/>
			<path class="st7" d="M3220.8,604.7c-0.4,1.6,0.5,3.3,2.1,3.7c1.6,0.4,3.3-0.5,3.7-2.1c0.4-1.6-0.5-3.2-2.1-3.7
				C3222.9,602.2,3221.2,603.1,3220.8,604.7C3220.8,604.7,3220.8,604.7,3220.8,604.7z"/>
		</g>
	</g>
</g>
<g>
	<radialGradient id="SVGID_15_" cx="2642.1658" cy="569.7744" r="366.9753" gradientUnits="userSpaceOnUse">
		<stop  offset="0" style="stop-color:#AB6A3D"/>
		<stop  offset="1" style="stop-color:#8B4D1B"/>
	</radialGradient>
	<path class="st82" d="M2422.5,364.1c0,0-49.2,143.2-49.2,266.5L2505,762.7h13.7l6.7-49.6c0,0,110.8,17.3,256.6-23.6l32.1,58.1h13.7
		l73.7-150.9c0,0,2.9-159.1-110.8-310L2422.5,364.1z"/>
	<path class="st83" d="M2379.6,628.1c0-105.5,33.1-225.1,45-264.5l-2.1,0.5c0,0-49.2,143.2-49.2,266.5L2505,762.7h3.3L2379.6,628.1z
		"/>
	<radialGradient id="SVGID_16_" cx="2645.9675" cy="609.4945" r="161.1147" gradientUnits="userSpaceOnUse">
		<stop  offset="0" style="stop-color:#C18045"/>
		<stop  offset="1" style="stop-color:#A86937"/>
	</radialGradient>
	<path class="st84" d="M2525.4,713.2c0,0,110.8,17.1,256.6-23.7C2606.2,479.1,2525.4,713.2,2525.4,713.2z"/>
	<path class="st85" d="M2814.1,747.6h13.7l73.7-150.9c0,0,2.9-159.1-110.8-310l-7,1.4c58.6,105.4,128.6,288.5,11.3,425L2814.1,747.6
		z"/>
	<polygon points="2692.1,33.3 2742.3,-14.9 2753.8,52.4 	"/>
	<polygon points="2554.7,37.8 2493,5.7 2500.9,73.5 	"/>
	<radialGradient id="SVGID_17_" cx="2609.6189" cy="50.5468" r="191.2577" gradientUnits="userSpaceOnUse">
		<stop  offset="0" style="stop-color:#AB6A3D"/>
		<stop  offset="1" style="stop-color:#8B4D1B"/>
	</radialGradient>
	<polygon class="st86" points="2468.2,207 2511.1,44.6 2742.5,15.4 2794.6,190.1 	"/>
	<polygon class="st83" points="2498.2,93.5 2468.2,207 2473.7,206.7 	"/>
	<path class="st87" d="M2794.6,190.1L2748.3,35c10,43.5,17.7,100.7,8.9,157.1L2794.6,190.1z"/>
	<path class="st88" d="M2426.7,363.2l-14.6,35.8c218.9,61.8,382.1,8.8,437.7-14.3c-14.9-31.9-34.2-65.2-59-98.1L2426.7,363.2z"/>
	<path class="st88" d="M2524.1,42.9l-13,1.6l-17.3,65.6C2544.4,91.1,2538.5,63.3,2524.1,42.9z"/>
	<path class="st88" d="M2762.6,82.8l-20.1-67.4l-8.3,1C2722.9,39.1,2714.7,73.5,2762.6,82.8z"/>
	<polygon class="st89" points="2582.9,195.3 2614,92.2 2656.8,183.6 	"/>
	<radialGradient id="SVGID_18_" cx="2609.7117" cy="197.4549" r="234.6834" gradientUnits="userSpaceOnUse">
		<stop  offset="0" style="stop-color:#FFEDB2"/>
		<stop  offset="1" style="stop-color:#DBBE8A"/>
	</radialGradient>
	<path class="st90" d="M2803.8,182.5l49,154.8c0,0-177.8,114.9-455.1,59.8l64.4-202.3l163.2-18.9L2803.8,182.5z"/>
	<path class="st91" d="M2463.9,194.5l-1.8,0.2L2397.7,397c1.8,0.4,3.5,0.7,5.3,1L2463.9,194.5z"/>
	<path class="st92" d="M2593.5,171.1c10.2-9.2,45.6-6.9,54.8,3.3c5,5.5-0.8,22.8-4.1,29.4c-1.4,2.8-6.1,7.7-9,9
		c-6.3,3-21.2,4.7-27.8,2.5c-3.7-1.3-9.8-7.1-11.4-10.6C2592.3,197.1,2587.3,176.8,2593.5,171.1z"/>
	<g>
		
			<ellipse transform="matrix(0.9961 -8.857436e-02 8.857436e-02 0.9961 -2.561 225.8806)" class="st7" cx="2543.9" cy="141.8" rx="19.4" ry="19.4"/>
		<path class="st92" d="M2530.3,144.7c1.6,7.5,8.9,12.3,16.5,10.7s12.3-8.9,10.7-16.5c-1.6-7.5-8.9-12.3-16.5-10.7
			C2533.5,129.8,2528.7,137.2,2530.3,144.7z"/>
	</g>
	<g>
		
			<ellipse transform="matrix(0.8485 -0.5292 0.5292 0.8485 337.9164 1444.4637)" class="st7" cx="2691.6" cy="132.1" rx="19.4" ry="19.4"/>
		
			<ellipse transform="matrix(0.8597 -0.5109 0.5109 0.8597 310.2673 1393.5989)" class="st92" cx="2691.6" cy="132.1" rx="13.9" ry="13.9"/>
	</g>
	<path class="st92" d="M2544,337.2c0,0,82.4,66.8,171.1-19.4C2715.1,317.8,2637.9,425.9,2544,337.2z"/>
	<polygon class="st92" points="2618.9,195 2621.8,363.9 2629.6,363.9 2622.8,200.7 	"/>
	<path class="st8" d="M2493,5.7c0,0,116.1,82.5-65.6,107.9C2427.4,113.6,2440,43.2,2493,5.7z"/>
	<path class="st91" d="M2471.3,25c-34.9,38.2-43.9,88.6-43.9,88.6c1.3-0.2,2.7-0.4,4-0.6C2436.8,91.9,2448.5,56,2471.3,25z"/>
	<path class="st8" d="M2742.3-14.9c0,0-88.2,111.8,93.4,85.1C2835.6,70.2,2803.7,6.1,2742.3-14.9z"/>
	<path class="st91" d="M2743.2-14.6c-0.3-0.1-0.6-0.2-0.9-0.3c0,0-40.8,51.7-9.8,76.4C2710.7,36.6,2736.9-5.4,2743.2-14.6z"/>
	<path class="st93" d="M2426.6,402.2c260.7,42,426.2-64.9,426.2-64.9l-48.5-153.1C2811.2,206.8,2874,448,2426.6,402.2z"/>
	<path class="st94" d="M2782.1,689.5c-13-15.5-25.4-28.6-37.4-39.6c-5.7,32.5-46.1,73.3-219.2,63.3
		C2525.4,713.2,2636.2,730.3,2782.1,689.5z"/>
	<g class="st18">
		<path class="st95" d="M2490.6,748.4l14.4,14.3h13.7l6.7-49.7C2525.4,713,2511.6,743.8,2490.6,748.4z"/>
		<polygon class="st95" points="2525.4,713.2 2525.4,713.2 2525.4,713.2 		"/>
	</g>
</g>
</svg>
